<svg width="29" height="28" viewBox="0 0 29 28" fill="none" xmlns="http://www.w3.org/2000/svg">
<path fill-rule="evenodd" clip-rule="evenodd" d="M14.6533 27.9992C13.3889 27.9991 12.1469 27.7298 11.0519 27.2182C10.583 27.0197 10.2864 26.6292 10.2792 26.2011C10.2721 25.7729 10.5556 25.3761 11.0176 25.1674C11.4797 24.9588 12.0459 24.9719 12.4925 25.2016C13.6953 25.7591 15.1556 25.816 16.419 25.3545C17.6824 24.8929 18.5955 23.969 18.8741 22.8703C19.1399 21.758 20.3554 20.9613 21.7552 20.9819H25.832L24.838 17.7647C24.8242 17.6718 24.8242 17.5778 24.838 17.4849V10.8057C24.9346 6.42386 20.8263 2.72794 15.4312 2.34302C12.6415 2.19111 9.89916 2.98324 7.85897 4.53024C5.81878 6.07723 4.66395 8.24021 4.67026 10.5026V17.4966C4.68414 17.5895 4.68414 17.6834 4.67026 17.7763L3.67627 20.9935H14.7974C15.593 20.9935 16.2379 21.5154 16.2379 22.1592C16.2379 22.803 15.593 23.3249 14.7974 23.3249H3.67627C2.79079 23.3243 1.9548 22.9943 1.40922 22.43C0.863646 21.8656 0.66908 21.1296 0.881596 20.434L1.83236 17.3567V10.5143C1.82437 7.60639 3.30832 4.82626 5.93003 2.83743C8.55175 0.848595 12.076 -0.170502 15.6617 0.0233649C22.5688 0.488194 27.8543 5.19784 27.7624 10.8057V17.3334L28.7131 20.4107C28.9256 21.1063 28.7311 21.8423 28.1855 22.4066C27.6399 22.971 26.8039 23.301 25.9185 23.3016H21.8417C21.166 26.0686 18.1385 28.047 14.6533 27.9992Z" fill="url(#paint0_linear)"/>
<ellipse cx="24.7166" cy="4.19849" rx="3.5" ry="3.5" fill="#F51E38" stroke="#F5F5F5"/>
<defs>
<linearGradient id="paint0_linear" x1="14.7974" y1="0" x2="14.7974" y2="28" gradientUnits="userSpaceOnUse">
<stop stop-color="#BC9CFF"/>
<stop offset="1" stop-color="#8BA4F9"/>
</linearGradient>
</defs>
</svg>
