<svg width="99" height="51" viewBox="0 0 99 51" fill="none" xmlns="http://www.w3.org/2000/svg">
<rect x="0.5" y="0.5" width="98" height="50" rx="3.5" fill="url(#paint0_linear)" stroke="url(#paint1_linear)"/>
<path d="M17.0665 23.846C20.1985 23.576 22.2325 22.406 23.1145 20.84C23.9965 22.406 26.0305 23.576 29.1445 23.846L29.9725 22.01C26.8765 21.74 25.2565 20.66 24.8425 19.544H29.2525V17.654H16.9945V19.544H21.3865C20.9725 20.66 19.3525 21.74 16.2745 22.01L17.0665 23.846ZM26.4265 30.56C26.4265 31.388 25.2925 31.748 23.0785 31.748C20.8645 31.748 19.7305 31.388 19.7305 30.56C19.7305 29.714 20.8645 29.354 23.0785 29.354C25.2925 29.354 26.4265 29.714 26.4265 30.56ZM30.6025 26.384V24.494H15.6265V26.384H21.9265V27.59C19.0465 27.824 17.3365 28.85 17.3365 30.56C17.3365 32.468 19.4965 33.548 23.0785 33.548C26.6605 33.548 28.8385 32.468 28.8385 30.56C28.8385 28.868 27.1465 27.842 24.3025 27.608V26.384H30.6025ZM33.8411 30.074H42.9851V33.566H45.3611V28.184H33.8411V30.074ZM36.4511 20.642H42.9131V21.938H36.4511V20.642ZM40.8431 25.16V23.792H45.2711V17.402H42.9131V18.86H36.4511V17.402H34.0931V23.792H38.4671V25.16H32.1851V27.05H47.1791V25.16H40.8431ZM63.4713 18.194H59.9613V16.826H57.5853V18.194H54.0573V19.886H63.4713V18.194ZM56.9733 22.748C56.9733 22.136 57.6573 21.83 58.7733 21.83C59.8893 21.83 60.5553 22.136 60.5553 22.748C60.5553 23.36 59.8893 23.684 58.7733 23.684C57.6573 23.684 56.9733 23.36 56.9733 22.748ZM63.8853 25.682C62.6253 25.826 61.3113 25.934 59.9613 25.988V25.142C61.7253 24.872 62.8053 24.008 62.8053 22.748C62.8053 21.236 61.2213 20.3 58.7733 20.3C56.3253 20.3 54.7233 21.236 54.7233 22.748C54.7233 24.008 55.8213 24.872 57.5853 25.142V26.078C56.1813 26.114 54.8313 26.114 53.6433 26.114L53.8953 27.932C56.8113 27.932 60.5913 27.896 64.0653 27.284L63.8853 25.682ZM55.7493 30.758H64.6053V33.566H66.9813V28.922H55.7493V30.758ZM69.0693 21.722H66.9813V16.97H64.6053V28.274H66.9813V23.666H69.0693V21.722ZM84.1699 16.988H81.7759V28.886H84.1699V16.988ZM72.9559 22.244C72.9559 20.876 73.9279 20.084 75.1519 20.084C76.3939 20.084 77.3299 20.876 77.3299 22.244C77.3299 23.576 76.3939 24.386 75.1519 24.386C73.9279 24.386 72.9559 23.576 72.9559 22.244ZM79.6519 22.244C79.6519 19.796 77.6899 18.032 75.1519 18.032C72.6139 18.032 70.6339 19.796 70.6339 22.244C70.6339 24.656 72.6139 26.438 75.1519 26.438C77.6899 26.438 79.6519 24.656 79.6519 22.244ZM75.5119 31.37V27.716H73.1359V33.26H84.5839V31.37H75.5119Z" fill="white"/>
<defs>
<linearGradient id="paint0_linear" x1="49.5" y1="0" x2="49.5" y2="51" gradientUnits="userSpaceOnUse">
<stop stop-color="#BC9CFF"/>
<stop offset="1" stop-color="#8BA4F9"/>
</linearGradient>
<linearGradient id="paint1_linear" x1="49.5" y1="0" x2="49.5" y2="51" gradientUnits="userSpaceOnUse">
<stop stop-color="#BC9CFF"/>
<stop offset="1" stop-color="#8BA4F9"/>
</linearGradient>
</defs>
</svg>
