<svg width="28" height="26" viewBox="0 0 28 26" fill="none" xmlns="http://www.w3.org/2000/svg">
<path d="M14 5.34375C8.16663 5.34375 3.18496 8.51854 1.16663 13C3.18496 17.4814 8.16663 20.6562 14 20.6562C19.8333 20.6562 24.815 17.4814 26.8333 13C24.815 8.51854 19.8333 5.34375 14 5.34375ZM14 18.1042C10.78 18.1042 8.16663 15.8175 8.16663 13C8.16663 10.1825 10.78 7.89583 14 7.89583C17.22 7.89583 19.8333 10.1825 19.8333 13C19.8333 15.8175 17.22 18.1042 14 18.1042ZM14 9.9375C12.0633 9.9375 10.5 11.3054 10.5 13C10.5 14.6946 12.0633 16.0625 14 16.0625C15.9366 16.0625 17.5 14.6946 17.5 13C17.5 11.3054 15.9366 9.9375 14 9.9375Z" fill="url(#paint0_linear)"/>
<defs>
<linearGradient id="paint0_linear" x1="14" y1="5.34375" x2="14" y2="20.6562" gradientUnits="userSpaceOnUse">
<stop stop-color="#BC9CFF"/>
<stop offset="1" stop-color="#8BA4F9"/>
</linearGradient>
</defs>
</svg>
