<svg width="136" height="52" viewBox="0 0 136 52" fill="none" xmlns="http://www.w3.org/2000/svg">
<path d="M81.6075 17.064V37H78.4155V24.624L73.1235 37H70.7435L65.4235 24.764V37H62.2315V17.064H65.0875L71.9475 32.66L78.7515 17.064H81.6075ZM92.1246 37.224C90.6873 37.224 89.4179 36.9253 88.3166 36.328C87.2339 35.7307 86.3939 34.8813 85.7966 33.78C85.2179 32.66 84.9286 31.3533 84.9286 29.86C84.9286 28.3667 85.2179 27.0693 85.7966 25.968C86.3939 24.848 87.2339 23.9893 88.3166 23.392C89.4179 22.7947 90.6873 22.496 92.1246 22.496C93.5433 22.496 94.7939 22.7947 95.8766 23.392C96.9593 23.9893 97.7899 24.848 98.3686 25.968C98.9659 27.0693 99.2646 28.3667 99.2646 29.86C99.2646 31.3533 98.9659 32.66 98.3686 33.78C97.7899 34.8813 96.9593 35.7307 95.8766 36.328C94.7939 36.9253 93.5433 37.224 92.1246 37.224ZM92.0966 34.48C93.2913 34.48 94.1966 34.0973 94.8126 33.332C95.4473 32.548 95.7646 31.3907 95.7646 29.86C95.7646 28.348 95.4473 27.2 94.8126 26.416C94.1779 25.6133 93.2819 25.212 92.1246 25.212C90.9486 25.212 90.0433 25.6133 89.4086 26.416C88.7739 27.2 88.4566 28.348 88.4566 29.86C88.4566 31.3907 88.7646 32.548 89.3806 33.332C90.0153 34.0973 90.9206 34.48 92.0966 34.48ZM115.807 22.86V37H112.363V34.732C111.934 35.516 111.318 36.132 110.515 36.58C109.712 37.0093 108.798 37.224 107.771 37.224C106.539 37.224 105.447 36.9253 104.495 36.328C103.543 35.7307 102.806 34.8813 102.283 33.78C101.76 32.6787 101.499 31.4 101.499 29.944C101.499 28.488 101.76 27.2 102.283 26.08C102.824 24.9413 103.571 24.064 104.523 23.448C105.475 22.8133 106.558 22.496 107.771 22.496C108.798 22.496 109.712 22.72 110.515 23.168C111.318 23.5973 111.934 24.204 112.363 24.988V22.86H115.807ZM108.723 34.48C109.88 34.48 110.776 34.0787 111.411 33.276C112.046 32.4733 112.363 31.344 112.363 29.888C112.363 28.3947 112.046 27.2467 111.411 26.444C110.776 25.6413 109.871 25.24 108.695 25.24C107.538 25.24 106.632 25.66 105.979 26.5C105.344 27.3213 105.027 28.4693 105.027 29.944C105.027 31.4 105.344 32.52 105.979 33.304C106.632 34.088 107.547 34.48 108.723 34.48ZM127.235 22.524C127.776 22.524 128.243 22.5987 128.635 22.748L128.607 25.94C128.01 25.6973 127.394 25.576 126.759 25.576C125.564 25.576 124.65 25.9213 124.015 26.612C123.399 27.3027 123.091 28.2173 123.091 29.356V37H119.619V26.864C119.619 25.3707 119.544 24.036 119.395 22.86H122.671L122.951 25.352C123.306 24.4373 123.866 23.7373 124.631 23.252C125.396 22.7667 126.264 22.524 127.235 22.524ZM130.584 22.86H134.056V37H130.584V22.86ZM134.252 16.448V19.892H130.36V16.448H134.252Z" fill="#1F2041"/>
<path d="M25.9998 35.1764C25.1586 35.1764 24.4704 34.4882 24.4704 33.647C24.4704 27.7588 19.6528 22.9411 13.7645 22.9411C12.9233 22.9411 12.2351 22.2529 12.2351 21.4117C12.2351 20.5706 12.9233 19.8823 13.7645 19.8823C21.3733 19.8823 27.5292 26.0382 27.5292 33.647C27.5292 34.4882 26.841 35.1764 25.9998 35.1764Z" fill="url(#paint0_linear)"/>
<path d="M39.7647 21.4117C39.7647 22.2529 39.0764 22.9411 38.2353 22.9411C34.6029 22.9411 31.3529 24.7764 29.4412 27.5676C29.0206 26.497 28.5235 25.5029 27.9117 24.5853C30.4353 21.6794 34.1441 19.8823 38.2353 19.8823C39.0764 19.8823 39.7647 20.5706 39.7647 21.4117Z" fill="url(#paint1_linear)"/>
<path d="M26 52C11.6618 52 0 40.3382 0 26C0 11.6618 11.6618 0 26 0C40.3382 0 52 11.6618 52 26C52 40.3382 40.3382 52 26 52ZM26 3.05882C13.3441 3.05882 3.05882 13.3441 3.05882 26C3.05882 38.6559 13.3441 48.9412 26 48.9412C38.6559 48.9412 48.9412 38.6559 48.9412 26C48.9412 13.3441 38.6559 3.05882 26 3.05882Z" fill="url(#paint2_linear)"/>
<defs>
<linearGradient id="paint0_linear" x1="19.8822" y1="19.8823" x2="19.8822" y2="35.1764" gradientUnits="userSpaceOnUse">
<stop stop-color="#BC9CFF"/>
<stop offset="1" stop-color="#8BA4F9"/>
</linearGradient>
<linearGradient id="paint1_linear" x1="33.8382" y1="19.8823" x2="33.8382" y2="27.5676" gradientUnits="userSpaceOnUse">
<stop stop-color="#6FCF97"/>
<stop offset="1" stop-color="#66D2EA"/>
</linearGradient>
<linearGradient id="paint2_linear" x1="26" y1="0" x2="26" y2="52" gradientUnits="userSpaceOnUse">
<stop stop-color="#BC9CFF"/>
<stop offset="1" stop-color="#8BA4F9"/>
</linearGradient>
</defs>
</svg>
