<svg width="31" height="28" viewBox="0 0 31 28" fill="none" xmlns="http://www.w3.org/2000/svg">
<path d="M22.525 0C19.8697 0 17.3213 1.23597 15.6579 3.1891C13.9946 1.23597 11.4462 0 8.79095 0C4.09087 0 0.397949 3.69264 0.397949 8.39237C0.397949 14.1602 5.58635 18.8599 13.4452 26.0011L15.6579 28L17.8706 25.9858C25.7295 18.8599 30.9179 14.1602 30.9179 8.39237C30.9179 3.69264 27.225 0 22.525 0ZM15.8105 23.7275L15.6579 23.8801L15.5053 23.7275C8.24159 17.151 3.44995 12.8022 3.44995 8.39237C3.44995 5.3406 5.73895 3.05177 8.79095 3.05177C11.141 3.05177 13.43 4.5624 14.2388 6.65286H17.0924C17.8859 4.5624 20.1749 3.05177 22.525 3.05177C25.577 3.05177 27.8659 5.3406 27.8659 8.39237C27.8659 12.8022 23.0743 17.151 15.8105 23.7275Z" fill="url(#paint0_linear)"/>
<defs>
<linearGradient id="paint0_linear" x1="15.6579" y1="0" x2="15.6579" y2="28" gradientUnits="userSpaceOnUse">
<stop stop-color="#BC9CFF"/>
<stop offset="1" stop-color="#8BA4F9"/>
</linearGradient>
</defs>
</svg>
