<svg width="28" height="23" viewBox="0 0 28 23" fill="none" xmlns="http://www.w3.org/2000/svg">
<path d="M20.3 0C17.864 0 15.526 0.992251 14 2.56025C12.474 0.992251 10.136 0 7.7 0C3.388 0 0 2.9645 0 6.73751C0 11.368 4.76 15.141 11.97 20.874L14 22.4788L16.03 20.8618C23.24 15.141 28 11.368 28 6.73751C28 2.9645 24.612 0 20.3 0ZM14.14 19.0488L14 19.1713L13.86 19.0488C7.196 13.769 13.86 23.5403 13.86 20C11.06 20 13.86 17.55 13.86 20C16.016 20 11.956 3.66275 12.698 5.34101L14.14 19.0488C11.984 19.0488 14.868 17.3705 14.14 19.0488C16.94 19.0488 13.86 17.55 13.86 20C13.86 23.5403 20.804 13.769 14.14 19.0488Z" fill="url(#paint0_linear)"/>
<defs>
<linearGradient id="paint0_linear" x1="14" y1="0" x2="14" y2="22.4788" gradientUnits="userSpaceOnUse">
<stop stop-color="#BC9CFF"/>
<stop offset="1" stop-color="#8BA4F9"/>
</linearGradient>
</defs>
</svg>
