<svg width="200" height="200" viewBox="0 0 200 200" fill="none" xmlns="http://www.w3.org/2000/svg">
<circle cx="100" cy="100" r="98" stroke="#BC9CFF" stroke-opacity="0.25" stroke-width="4"/>
<path d="M55.4585 106.192C55.8745 106.192 56.2185 106.328 56.4905 106.6C56.7785 106.856 56.9225 107.192 56.9225 107.608C56.9225 108.008 56.7785 108.344 56.4905 108.616C56.2185 108.872 55.8745 109 55.4585 109H47.6585C47.2425 109 46.8905 108.864 46.6025 108.592C46.3305 108.304 46.1945 107.952 46.1945 107.536V93.664C46.1945 93.248 46.3385 92.904 46.6265 92.632C46.9145 92.344 47.2825 92.2 47.7305 92.2C48.1305 92.2 48.4745 92.344 48.7625 92.632C49.0505 92.904 49.1945 93.248 49.1945 93.664V106.192H55.4585ZM71.7671 102.592C71.7671 103.872 71.4791 105.024 70.9031 106.048C70.3271 107.056 69.5351 107.84 68.5271 108.4C67.5351 108.96 66.4391 109.24 65.2391 109.24C64.0231 109.24 62.9191 108.96 61.9271 108.4C60.9351 107.84 60.1511 107.056 59.5751 106.048C58.9991 105.024 58.7111 103.872 58.7111 102.592C58.7111 101.312 58.9991 100.168 59.5751 99.16C60.1511 98.136 60.9351 97.344 61.9271 96.784C62.9191 96.208 64.0231 95.92 65.2391 95.92C66.4391 95.92 67.5351 96.208 68.5271 96.784C69.5351 97.344 70.3271 98.136 70.9031 99.16C71.4791 100.168 71.7671 101.312 71.7671 102.592ZM68.8871 102.592C68.8871 101.808 68.7191 101.112 68.3831 100.504C68.0631 99.88 67.6231 99.4 67.0631 99.064C66.5191 98.728 65.9111 98.56 65.2391 98.56C64.5671 98.56 63.9511 98.728 63.3911 99.064C62.8471 99.4 62.4071 99.88 62.0711 100.504C61.7511 101.112 61.5911 101.808 61.5911 102.592C61.5911 103.376 61.7511 104.072 62.0711 104.68C62.4071 105.288 62.8471 105.76 63.3911 106.096C63.9511 106.432 64.5671 106.6 65.2391 106.6C65.9111 106.6 66.5191 106.432 67.0631 106.096C67.6231 105.76 68.0631 105.288 68.3831 104.68C68.7191 104.072 68.8871 103.376 68.8871 102.592ZM84.5653 95.92C84.9813 95.92 85.3253 96.056 85.5973 96.328C85.8693 96.6 86.0053 96.952 86.0053 97.384V107.536C86.0053 107.952 85.8693 108.304 85.5973 108.592C85.3253 108.864 84.9813 109 84.5653 109C84.1493 109 83.8053 108.864 83.5333 108.592C83.2773 108.32 83.1413 107.976 83.1253 107.56C82.7253 108.024 82.1813 108.424 81.4933 108.76C80.8213 109.08 80.1093 109.24 79.3573 109.24C78.2533 109.24 77.2533 108.96 76.3573 108.4C75.4613 107.824 74.7493 107.032 74.2213 106.024C73.7093 105.016 73.4533 103.872 73.4533 102.592C73.4533 101.312 73.7093 100.168 74.2213 99.16C74.7333 98.136 75.4293 97.344 76.3093 96.784C77.2053 96.208 78.1893 95.92 79.2613 95.92C80.0293 95.92 80.7493 96.064 81.4213 96.352C82.0933 96.624 82.6613 96.976 83.1253 97.408V97.384C83.1253 96.968 83.2613 96.624 83.5333 96.352C83.8053 96.064 84.1493 95.92 84.5653 95.92ZM79.7173 106.6C80.7573 106.6 81.6053 106.224 82.2613 105.472C82.9173 104.704 83.2453 103.744 83.2453 102.592C83.2453 101.44 82.9173 100.48 82.2613 99.712C81.6053 98.944 80.7573 98.56 79.7173 98.56C78.6933 98.56 77.8533 98.944 77.1973 99.712C76.5413 100.48 76.2133 101.44 76.2133 102.592C76.2133 103.744 76.5333 104.704 77.1733 105.472C77.8293 106.224 78.6773 106.6 79.7173 106.6ZM99.5184 91.24C99.9344 91.24 100.278 91.376 100.55 91.648C100.822 91.92 100.958 92.272 100.958 92.704V107.536C100.958 107.952 100.822 108.304 100.55 108.592C100.278 108.864 99.9344 109 99.5184 109C99.1024 109 98.7584 108.864 98.4864 108.592C98.2304 108.32 98.0944 107.976 98.0784 107.56C97.6784 108.024 97.1344 108.424 96.4464 108.76C95.7744 109.08 95.0624 109.24 94.3104 109.24C93.2064 109.24 92.2064 108.96 91.3104 108.4C90.4144 107.824 89.7024 107.032 89.1744 106.024C88.6624 105.016 88.4064 103.872 88.4064 102.592C88.4064 101.312 88.6624 100.168 89.1744 99.16C89.6864 98.136 90.3824 97.344 91.2624 96.784C92.1584 96.208 93.1424 95.92 94.2144 95.92C94.9824 95.92 95.7024 96.064 96.3744 96.352C97.0464 96.624 97.6144 96.976 98.0784 97.408V92.704C98.0784 92.288 98.2144 91.944 98.4864 91.672C98.7584 91.384 99.1024 91.24 99.5184 91.24ZM94.6704 106.6C95.7104 106.6 96.5584 106.224 97.2144 105.472C97.8704 104.704 98.1984 103.744 98.1984 102.592C98.1984 101.44 97.8704 100.48 97.2144 99.712C96.5584 98.944 95.7104 98.56 94.6704 98.56C93.6464 98.56 92.8064 98.944 92.1504 99.712C91.4944 100.48 91.1664 101.44 91.1664 102.592C91.1664 103.744 91.4864 104.704 92.1264 105.472C92.7824 106.224 93.6304 106.6 94.6704 106.6ZM106.792 107.536C106.792 107.952 106.656 108.304 106.384 108.592C106.112 108.864 105.768 109 105.352 109C104.936 109 104.592 108.864 104.32 108.592C104.048 108.304 103.912 107.952 103.912 107.536V97.624C103.912 97.208 104.048 96.864 104.32 96.592C104.592 96.304 104.936 96.16 105.352 96.16C105.768 96.16 106.112 96.304 106.384 96.592C106.656 96.864 106.792 97.208 106.792 97.624V107.536ZM105.328 94.6C104.784 94.6 104.4 94.512 104.176 94.336C103.952 94.16 103.84 93.848 103.84 93.4V92.944C103.84 92.496 103.96 92.184 104.2 92.008C104.44 91.832 104.824 91.744 105.352 91.744C105.912 91.744 106.304 91.832 106.528 92.008C106.752 92.184 106.864 92.496 106.864 92.944V93.4C106.864 93.864 106.744 94.184 106.504 94.36C106.28 94.52 105.888 94.6 105.328 94.6ZM116.615 95.92C118.247 95.92 119.375 96.408 119.999 97.384C120.623 98.344 120.935 99.68 120.935 101.392V107.536C120.935 107.952 120.799 108.304 120.527 108.592C120.255 108.864 119.911 109 119.495 109C119.079 109 118.735 108.864 118.463 108.592C118.191 108.304 118.055 107.952 118.055 107.536V101.392C118.055 100.512 117.871 99.824 117.503 99.328C117.135 98.816 116.503 98.56 115.607 98.56C114.679 98.56 113.951 98.832 113.423 99.376C112.895 99.904 112.631 100.576 112.631 101.392V107.536C112.631 107.952 112.495 108.304 112.223 108.592C111.951 108.864 111.607 109 111.191 109C110.775 109 110.431 108.864 110.159 108.592C109.887 108.304 109.751 107.952 109.751 107.536V97.624C109.751 97.208 109.887 96.864 110.159 96.592C110.431 96.304 110.775 96.16 111.191 96.16C111.607 96.16 111.951 96.304 112.223 96.592C112.495 96.864 112.631 97.208 112.631 97.624V98.032C113.063 97.456 113.623 96.96 114.311 96.544C115.015 96.128 115.783 95.92 116.615 95.92ZM134.68 95.92C135.096 95.92 135.44 96.056 135.712 96.328C135.984 96.6 136.12 96.952 136.12 97.384V108.064C136.12 110.016 135.512 111.456 134.296 112.384C133.096 113.328 131.568 113.8 129.712 113.8C129.232 113.8 128.568 113.72 127.72 113.56C126.888 113.4 126.296 113.24 125.944 113.08C125.16 112.744 124.768 112.28 124.768 111.688C124.768 111.576 124.792 111.448 124.84 111.304C124.936 110.952 125.096 110.68 125.32 110.488C125.56 110.312 125.816 110.224 126.088 110.224C126.248 110.224 126.4 110.248 126.544 110.296C126.608 110.312 127 110.456 127.72 110.728C128.456 111.016 129.12 111.16 129.712 111.16C130.896 111.16 131.776 110.92 132.352 110.44C132.944 109.976 133.24 109.312 133.24 108.448V107.296C132.888 107.792 132.352 108.24 131.632 108.64C130.928 109.04 130.168 109.24 129.352 109.24C128.232 109.24 127.208 108.96 126.28 108.4C125.368 107.824 124.648 107.032 124.12 106.024C123.592 105.016 123.328 103.872 123.328 102.592C123.328 101.312 123.584 100.168 124.096 99.16C124.624 98.136 125.336 97.344 126.232 96.784C127.144 96.208 128.152 95.92 129.256 95.92C130.072 95.92 130.832 96.088 131.536 96.424C132.24 96.76 132.808 97.168 133.24 97.648V97.384C133.24 96.968 133.376 96.624 133.648 96.352C133.92 96.064 134.264 95.92 134.68 95.92ZM129.712 106.6C130.784 106.6 131.656 106.224 132.328 105.472C133.016 104.704 133.36 103.744 133.36 102.592C133.36 101.44 133.016 100.48 132.328 99.712C131.656 98.944 130.784 98.56 129.712 98.56C128.64 98.56 127.768 98.944 127.096 99.712C126.424 100.48 126.088 101.44 126.088 102.592C126.088 103.744 126.424 104.704 127.096 105.472C127.768 106.224 128.64 106.6 129.712 106.6ZM140.508 108.976C140.044 108.976 139.684 108.856 139.428 108.616C139.188 108.36 139.068 108 139.068 107.536V107.128C139.068 106.664 139.188 106.312 139.428 106.072C139.684 105.816 140.044 105.688 140.508 105.688H140.82C141.284 105.688 141.636 105.816 141.876 106.072C142.132 106.312 142.26 106.664 142.26 107.128V107.536C142.26 108 142.132 108.36 141.876 108.616C141.636 108.856 141.284 108.976 140.82 108.976H140.508ZM146.484 108.976C146.02 108.976 145.66 108.856 145.404 108.616C145.164 108.36 145.044 108 145.044 107.536V107.128C145.044 106.664 145.164 106.312 145.404 106.072C145.66 105.816 146.02 105.688 146.484 105.688H146.796C147.26 105.688 147.612 105.816 147.852 106.072C148.108 106.312 148.236 106.664 148.236 107.128V107.536C148.236 108 148.108 108.36 147.852 108.616C147.612 108.856 147.26 108.976 146.796 108.976H146.484ZM152.461 108.976C151.997 108.976 151.637 108.856 151.381 108.616C151.141 108.36 151.021 108 151.021 107.536V107.128C151.021 106.664 151.141 106.312 151.381 106.072C151.637 105.816 151.997 105.688 152.461 105.688H152.773C153.237 105.688 153.589 105.816 153.829 106.072C154.085 106.312 154.213 106.664 154.213 107.128V107.536C154.213 108 154.085 108.36 153.829 108.616C153.589 108.856 153.237 108.976 152.773 108.976H152.461Z" fill="#BC9CFF"/>
<mask id="mask0" mask-type="alpha" maskUnits="userSpaceOnUse" x="100" y="0" width="100" height="100">
<rect x="100" width="100" height="100" fill="#C4C4C4"/>
</mask>
<g mask="url(#mask0)">
<circle cx="100" cy="100" r="97" stroke="url(#paint0_linear)" stroke-width="6"/>
</g>
<defs>
<linearGradient id="paint0_linear" x1="100" y1="0" x2="100" y2="200" gradientUnits="userSpaceOnUse">
<stop stop-color="#BC9CFF"/>
<stop offset="1" stop-color="#8BA4F9"/>
</linearGradient>
</defs>
</svg>
