<svg width="480" height="52" viewBox="0 0 480 52" fill="none" xmlns="http://www.w3.org/2000/svg">
<rect x="0.5" y="0.5" width="479" height="50.4149" rx="3.5" fill="url(#paint0_linear)" stroke="url(#paint1_linear)"/>
<path d="M218.902 30.54V27.8H224.482V25.68H213.802V23.62H224.062V17.48H211.162V19.58H221.462V21.56H211.182V27.8H216.262V30.54H209.262V32.7H225.942V30.54H218.902ZM239.641 20.18C239.641 22.68 239.641 25.3 238.981 28.82L241.601 29.06C242.281 25.28 242.281 22.76 242.281 20.18V18H229.381V20.1H239.641V20.18ZM227.661 30.16V32.32H244.321V30.16H227.661ZM261.359 16.32H258.699V29.54H261.359V16.32ZM248.899 22.16C248.899 20.64 249.979 19.76 251.339 19.76C252.719 19.76 253.759 20.64 253.759 22.16C253.759 23.64 252.719 24.54 251.339 24.54C249.979 24.54 248.899 23.64 248.899 22.16ZM256.339 22.16C256.339 19.44 254.159 17.48 251.339 17.48C248.519 17.48 246.319 19.44 246.319 22.16C246.319 24.84 248.519 26.82 251.339 26.82C254.159 26.82 256.339 24.84 256.339 22.16ZM251.739 32.3V28.24H249.099V34.4H261.819V32.3H251.739Z" fill="white"/>
<defs>
<linearGradient id="paint0_linear" x1="240" y1="0" x2="240" y2="51.4149" gradientUnits="userSpaceOnUse">
<stop stop-color="#BC9CFF"/>
<stop offset="1" stop-color="#8BA4F9"/>
</linearGradient>
<linearGradient id="paint1_linear" x1="240" y1="0" x2="240" y2="51.4149" gradientUnits="userSpaceOnUse">
<stop stop-color="#BC9CFF"/>
<stop offset="1" stop-color="#8BA4F9"/>
</linearGradient>
</defs>
</svg>
