<svg width="96" height="36" viewBox="0 0 96 36" fill="none" xmlns="http://www.w3.org/2000/svg">
<path d="M1 18C1 8.61116 8.61116 1 18 1H78C87.3888 1 95 8.61116 95 18C95 27.3888 87.3888 35 78 35H18C8.61116 35 1 27.3888 1 18Z" stroke="url(#paint0_linear)" stroke-width="2"/>
<path d="M25.7626 13.2H28.0306V21.152H32.9446V23H25.7626V13.2ZM38.7937 23.168C37.7764 23.168 36.8571 22.9487 36.0357 22.51C35.2237 22.0713 34.5844 21.4693 34.1177 20.704C33.6604 19.9293 33.4317 19.0613 33.4317 18.1C33.4317 17.1387 33.6604 16.2753 34.1177 15.51C34.5844 14.7353 35.2237 14.1287 36.0357 13.69C36.8571 13.2513 37.7764 13.032 38.7937 13.032C39.8111 13.032 40.7257 13.2513 41.5377 13.69C42.3497 14.1287 42.9891 14.7353 43.4557 15.51C43.9224 16.2753 44.1557 17.1387 44.1557 18.1C44.1557 19.0613 43.9224 19.9293 43.4557 20.704C42.9891 21.4693 42.3497 22.0713 41.5377 22.51C40.7257 22.9487 39.8111 23.168 38.7937 23.168ZM38.7937 21.236C39.3724 21.236 39.8951 21.1053 40.3617 20.844C40.8284 20.5733 41.1924 20.2 41.4537 19.724C41.7244 19.248 41.8597 18.7067 41.8597 18.1C41.8597 17.4933 41.7244 16.952 41.4537 16.476C41.1924 16 40.8284 15.6313 40.3617 15.37C39.8951 15.0993 39.3724 14.964 38.7937 14.964C38.2151 14.964 37.6924 15.0993 37.2257 15.37C36.7591 15.6313 36.3904 16 36.1197 16.476C35.8584 16.952 35.7277 17.4933 35.7277 18.1C35.7277 18.7067 35.8584 19.248 36.1197 19.724C36.3904 20.2 36.7591 20.5733 37.2257 20.844C37.6924 21.1053 38.2151 21.236 38.7937 21.236ZM52.4822 17.946H54.5542V21.922C54.0222 22.3233 53.4062 22.6313 52.7062 22.846C52.0062 23.0607 51.3016 23.168 50.5922 23.168C49.5749 23.168 48.6602 22.9533 47.8482 22.524C47.0362 22.0853 46.3969 21.4833 45.9302 20.718C45.4729 19.9433 45.2442 19.0707 45.2442 18.1C45.2442 17.1293 45.4729 16.2613 45.9302 15.496C46.3969 14.7213 47.0409 14.1193 47.8622 13.69C48.6836 13.2513 49.6076 13.032 50.6342 13.032C51.4929 13.032 52.2722 13.1767 52.9722 13.466C53.6722 13.7553 54.2602 14.1753 54.7362 14.726L53.2802 16.07C52.5802 15.3327 51.7356 14.964 50.7462 14.964C50.1209 14.964 49.5656 15.0947 49.0802 15.356C48.5949 15.6173 48.2169 15.986 47.9462 16.462C47.6756 16.938 47.5402 17.484 47.5402 18.1C47.5402 18.7067 47.6756 19.248 47.9462 19.724C48.2169 20.2 48.5902 20.5733 49.0662 20.844C49.5516 21.1053 50.1022 21.236 50.7182 21.236C51.3716 21.236 51.9596 21.096 52.4822 20.816V17.946ZM56.661 13.2H58.929V23H56.661V13.2ZM70.2428 13.2V23H68.3808L63.4948 17.05V23H61.2548V13.2H63.1308L68.0028 19.15V13.2H70.2428Z" fill="#BC9CFF"/>
<defs>
<linearGradient id="paint0_linear" x1="48" y1="0" x2="48" y2="36" gradientUnits="userSpaceOnUse">
<stop stop-color="#BC9CFF"/>
<stop offset="1" stop-color="#8BA4F9"/>
</linearGradient>
</defs>
</svg>
