<svg width="96" height="36" viewBox="0 0 96 36" fill="none" xmlns="http://www.w3.org/2000/svg">
<path d="M1 18C1 8.61116 8.61116 1 18 1H78C87.3888 1 95 8.61116 95 18C95 27.3888 87.3888 35 78 35H18C8.61116 35 1 27.3888 1 18Z" stroke="url(#paint0_linear)" stroke-width="2"/>
<path d="M18.0448 13.2H20.3128V21.152H25.2268V23H18.0448V13.2ZM31.076 23.168C30.0586 23.168 29.1393 22.9487 28.318 22.51C27.506 22.0713 26.8666 21.4693 26.4 20.704C25.9426 19.9293 25.714 19.0613 25.714 18.1C25.714 17.1387 25.9426 16.2753 26.4 15.51C26.8666 14.7353 27.506 14.1287 28.318 13.69C29.1393 13.2513 30.0586 13.032 31.076 13.032C32.0933 13.032 33.008 13.2513 33.82 13.69C34.632 14.1287 35.2713 14.7353 35.738 15.51C36.2046 16.2753 36.438 17.1387 36.438 18.1C36.438 19.0613 36.2046 19.9293 35.738 20.704C35.2713 21.4693 34.632 22.0713 33.82 22.51C33.008 22.9487 32.0933 23.168 31.076 23.168ZM31.076 21.236C31.6546 21.236 32.1773 21.1053 32.644 20.844C33.1106 20.5733 33.4746 20.2 33.736 19.724C34.0066 19.248 34.142 18.7067 34.142 18.1C34.142 17.4933 34.0066 16.952 33.736 16.476C33.4746 16 33.1106 15.6313 32.644 15.37C32.1773 15.0993 31.6546 14.964 31.076 14.964C30.4973 14.964 29.9746 15.0993 29.508 15.37C29.0413 15.6313 28.6726 16 28.402 16.476C28.1406 16.952 28.01 17.4933 28.01 18.1C28.01 18.7067 28.1406 19.248 28.402 19.724C28.6726 20.2 29.0413 20.5733 29.508 20.844C29.9746 21.1053 30.4973 21.236 31.076 21.236ZM44.7645 17.946H46.8365V21.922C46.3045 22.3233 45.6885 22.6313 44.9885 22.846C44.2885 23.0607 43.5838 23.168 42.8745 23.168C41.8571 23.168 40.9425 22.9533 40.1305 22.524C39.3185 22.0853 38.6791 21.4833 38.2125 20.718C37.7551 19.9433 37.5265 19.0707 37.5265 18.1C37.5265 17.1293 37.7551 16.2613 38.2125 15.496C38.6791 14.7213 39.3231 14.1193 40.1445 13.69C40.9658 13.2513 41.8898 13.032 42.9165 13.032C43.7751 13.032 44.5545 13.1767 45.2545 13.466C45.9545 13.7553 46.5425 14.1753 47.0185 14.726L45.5625 16.07C44.8625 15.3327 44.0178 14.964 43.0285 14.964C42.4031 14.964 41.8478 15.0947 41.3625 15.356C40.8771 15.6173 40.4991 15.986 40.2285 16.462C39.9578 16.938 39.8225 17.484 39.8225 18.1C39.8225 18.7067 39.9578 19.248 40.2285 19.724C40.4991 20.2 40.8725 20.5733 41.3485 20.844C41.8338 21.1053 42.3845 21.236 43.0005 21.236C43.6538 21.236 44.2418 21.096 44.7645 20.816V17.946ZM53.6893 23.168C52.6719 23.168 51.7526 22.9487 50.9313 22.51C50.1193 22.0713 49.4799 21.4693 49.0133 20.704C48.5559 19.9293 48.3273 19.0613 48.3273 18.1C48.3273 17.1387 48.5559 16.2753 49.0133 15.51C49.4799 14.7353 50.1193 14.1287 50.9313 13.69C51.7526 13.2513 52.6719 13.032 53.6893 13.032C54.7066 13.032 55.6213 13.2513 56.4333 13.69C57.2453 14.1287 57.8846 14.7353 58.3513 15.51C58.8179 16.2753 59.0513 17.1387 59.0513 18.1C59.0513 19.0613 58.8179 19.9293 58.3513 20.704C57.8846 21.4693 57.2453 22.0713 56.4333 22.51C55.6213 22.9487 54.7066 23.168 53.6893 23.168ZM53.6893 21.236C54.2679 21.236 54.7906 21.1053 55.2573 20.844C55.7239 20.5733 56.0879 20.2 56.3493 19.724C56.6199 19.248 56.7553 18.7067 56.7553 18.1C56.7553 17.4933 56.6199 16.952 56.3493 16.476C56.0879 16 55.7239 15.6313 55.2573 15.37C54.7906 15.0993 54.2679 14.964 53.6893 14.964C53.1106 14.964 52.5879 15.0993 52.1213 15.37C51.6546 15.6313 51.2859 16 51.0153 16.476C50.7539 16.952 50.6233 17.4933 50.6233 18.1C50.6233 18.7067 50.7539 19.248 51.0153 19.724C51.2859 20.2 51.6546 20.5733 52.1213 20.844C52.5879 21.1053 53.1106 21.236 53.6893 21.236ZM65.1098 23.168C63.7098 23.168 62.6178 22.7807 61.8338 22.006C61.0591 21.2313 60.6718 20.1253 60.6718 18.688V13.2H62.9398V18.604C62.9398 20.3587 63.6678 21.236 65.1238 21.236C65.8331 21.236 66.3744 21.026 66.7478 20.606C67.1211 20.1767 67.3077 19.5093 67.3077 18.604V13.2H69.5478V18.688C69.5478 20.1253 69.1558 21.2313 68.3718 22.006C67.5971 22.7807 66.5098 23.168 65.1098 23.168ZM73.6549 15.048H70.5189V13.2H79.0589V15.048H75.9229V23H73.6549V15.048Z" fill="#BC9CFF"/>
<defs>
<linearGradient id="paint0_linear" x1="48" y1="0" x2="48" y2="36" gradientUnits="userSpaceOnUse">
<stop stop-color="#BC9CFF"/>
<stop offset="1" stop-color="#8BA4F9"/>
</linearGradient>
</defs>
</svg>
