<svg width="184" height="66" viewBox="0 0 184 66" fill="none" xmlns="http://www.w3.org/2000/svg">
<path d="M92.504 7.912V25H89.768V14.392L85.232 25H83.192L78.632 14.512V25H75.896V7.912H78.344L84.224 21.28L90.056 7.912H92.504ZM101.519 25.192C100.287 25.192 99.1986 24.936 98.2546 24.424C97.3266 23.912 96.6066 23.184 96.0946 22.24C95.5986 21.28 95.3506 20.16 95.3506 18.88C95.3506 17.6 95.5986 16.488 96.0946 15.544C96.6066 14.584 97.3266 13.848 98.2546 13.336C99.1986 12.824 100.287 12.568 101.519 12.568C102.735 12.568 103.807 12.824 104.735 13.336C105.663 13.848 106.375 14.584 106.871 15.544C107.383 16.488 107.639 17.6 107.639 18.88C107.639 20.16 107.383 21.28 106.871 22.24C106.375 23.184 105.663 23.912 104.735 24.424C103.807 24.936 102.735 25.192 101.519 25.192ZM101.495 22.84C102.519 22.84 103.295 22.512 103.823 21.856C104.367 21.184 104.639 20.192 104.639 18.88C104.639 17.584 104.367 16.6 103.823 15.928C103.279 15.24 102.511 14.896 101.519 14.896C100.511 14.896 99.7346 15.24 99.1906 15.928C98.6466 16.6 98.3746 17.584 98.3746 18.88C98.3746 20.192 98.6386 21.184 99.1666 21.856C99.7106 22.512 100.487 22.84 101.495 22.84ZM121.818 12.88V25H118.866V23.056C118.498 23.728 117.97 24.256 117.282 24.64C116.594 25.008 115.81 25.192 114.93 25.192C113.874 25.192 112.938 24.936 112.122 24.424C111.306 23.912 110.674 23.184 110.226 22.24C109.778 21.296 109.554 20.2 109.554 18.952C109.554 17.704 109.778 16.6 110.226 15.64C110.69 14.664 111.33 13.912 112.146 13.384C112.962 12.84 113.89 12.568 114.93 12.568C115.81 12.568 116.594 12.76 117.282 13.144C117.97 13.512 118.498 14.032 118.866 14.704V12.88H121.818ZM115.746 22.84C116.738 22.84 117.506 22.496 118.05 21.808C118.594 21.12 118.866 20.152 118.866 18.904C118.866 17.624 118.594 16.64 118.05 15.952C117.506 15.264 116.73 14.92 115.722 14.92C114.73 14.92 113.954 15.28 113.394 16C112.85 16.704 112.578 17.688 112.578 18.952C112.578 20.2 112.85 21.16 113.394 21.832C113.954 22.504 114.738 22.84 115.746 22.84ZM131.613 12.592C132.077 12.592 132.477 12.656 132.813 12.784L132.789 15.52C132.277 15.312 131.749 15.208 131.205 15.208C130.181 15.208 129.397 15.504 128.853 16.096C128.325 16.688 128.061 17.472 128.061 18.448V25H125.085V16.312C125.085 15.032 125.021 13.888 124.893 12.88H127.701L127.941 15.016C128.245 14.232 128.725 13.632 129.381 13.216C130.037 12.8 130.781 12.592 131.613 12.592ZM134.484 12.88H137.46V25H134.484V12.88ZM137.628 7.384V10.336H134.292V7.384H137.628Z" fill="#1F2041"/>
<path d="M81.78 38.72H79.12V41.38C79.12 44.88 77.72 48.46 74.6 49.9L76.24 52.02C78.3 50.98 79.68 49.06 80.48 46.7C81.24 48.92 82.58 50.72 84.6 51.7L86.16 49.6C83.12 48.24 81.78 44.86 81.78 41.38V38.72ZM87.68 37.28V43.06H84.14V45.18H87.68V55.76H90.32V37.28H87.68ZM101.578 39.4C104.258 39.4 105.518 39.78 105.518 40.6C105.518 41.46 104.258 41.82 101.578 41.82C98.9184 41.82 97.6584 41.46 97.6584 40.6C97.6584 39.78 98.9184 39.4 101.578 39.4ZM101.578 43.74C105.798 43.74 108.258 42.64 108.258 40.6C108.258 38.58 105.798 37.46 101.578 37.46C97.3784 37.46 94.9184 38.58 94.9184 40.6C94.9184 42.64 97.3784 43.74 101.578 43.74ZM109.898 46.62V44.54H93.2584V46.62H100.238V47.82H95.1584V49.76H105.278V50.74H95.1784V55.58H108.358V53.6H97.7984V52.56H107.878V47.82H102.878V46.62H109.898ZM114.777 41.56H118.997V39.42H112.177V51.58H113.457C115.817 51.58 117.777 51.5 120.017 51.08L119.817 48.94C118.057 49.26 116.497 49.36 114.777 49.4V41.56ZM124.957 37.28V44.38H123.297V37.64H120.837V54.86H123.297V46.5H124.957V55.72H127.457V37.28H124.957ZM140.895 38.92H136.795V37.2H134.135V38.92H130.055V41H140.895V38.92ZM133.475 44.96C133.475 44.04 134.275 43.58 135.475 43.58C136.655 43.58 137.475 44.04 137.475 44.96C137.475 45.9 136.655 46.36 135.475 46.36C134.275 46.36 133.475 45.9 133.475 44.96ZM139.995 44.96C139.995 42.96 138.135 41.58 135.475 41.58C132.835 41.58 130.955 42.96 130.955 44.96C130.955 46.98 132.835 48.36 135.475 48.36C138.135 48.36 139.995 46.98 139.995 44.96ZM132.275 51.72H141.915V55.74H144.555V49.6H132.275V51.72ZM146.995 42.04H144.555V37.32H141.915V48.84H144.555V44.22H146.995V42.04ZM162.994 49.18C163.614 45.46 163.614 42.92 163.614 40.66V38.88H150.074V40.98H160.974C160.974 43.1 160.954 45.58 160.354 48.92L162.994 49.18ZM159.094 51.38V45.56H156.514V51.38H154.554V45.56H151.954V51.38H148.454V53.5H165.134V51.38H159.094Z" fill="#1F2041" fill-opacity="0.75"/>
<path d="M30.9998 44.3413C29.9968 44.3413 29.1762 43.5207 29.1762 42.5177C29.1762 35.4971 23.4321 29.753 16.4115 29.753C15.4086 29.753 14.588 28.9324 14.588 27.9295C14.588 26.9265 15.4086 26.106 16.4115 26.106C25.4836 26.106 32.8233 33.4457 32.8233 42.5177C32.8233 43.5207 32.0027 44.3413 30.9998 44.3413Z" fill="url(#paint0_linear)"/>
<path d="M47.4117 27.9295C47.4117 28.9324 46.5911 29.753 45.5881 29.753C41.2572 29.753 37.3822 31.9412 35.1028 35.2692C34.6014 33.9927 34.0087 32.8074 33.2793 31.7133C36.2881 28.2486 40.7102 26.106 45.5881 26.106C46.5911 26.106 47.4117 26.9265 47.4117 27.9295Z" fill="url(#paint1_linear)"/>
<path d="M31 64.4C13.9044 64.4 0 50.4956 0 33.4C0 16.3044 13.9044 2.40002 31 2.40002C48.0956 2.40002 62 16.3044 62 33.4C62 50.4956 48.0956 64.4 31 64.4ZM31 6.04708C15.9103 6.04708 3.64706 18.3103 3.64706 33.4C3.64706 48.4897 15.9103 60.753 31 60.753C46.0897 60.753 58.3529 48.4897 58.3529 33.4C58.3529 18.3103 46.0897 6.04708 31 6.04708Z" fill="url(#paint2_linear)"/>
<defs>
<linearGradient id="paint0_linear" x1="23.7057" y1="26.106" x2="23.7057" y2="44.3413" gradientUnits="userSpaceOnUse">
<stop stop-color="#BC9CFF"/>
<stop offset="1" stop-color="#8BA4F9"/>
</linearGradient>
<linearGradient id="paint1_linear" x1="40.3455" y1="26.106" x2="40.3455" y2="35.2692" gradientUnits="userSpaceOnUse">
<stop stop-color="#6FCF97"/>
<stop offset="1" stop-color="#66D2EA"/>
</linearGradient>
<linearGradient id="paint2_linear" x1="31" y1="2.40002" x2="31" y2="64.4" gradientUnits="userSpaceOnUse">
<stop stop-color="#BC9CFF"/>
<stop offset="1" stop-color="#8BA4F9"/>
</linearGradient>
</defs>
</svg>
