<svg width="157" height="24" viewBox="0 0 157 24" fill="none" xmlns="http://www.w3.org/2000/svg">
<path d="M16.264 0.912V18H14.44V5.304L8.896 18H7.504L1.912 5.4L1.936 18H0.112V0.912H1.744L8.224 15.648L14.632 0.912H16.264ZM25.2312 18.168C24.0952 18.168 23.0952 17.912 22.2312 17.4C21.3672 16.888 20.6952 16.16 20.2152 15.216C19.7512 14.272 19.5192 13.168 19.5192 11.904C19.5192 10.64 19.7512 9.536 20.2152 8.592C20.6952 7.648 21.3672 6.92 22.2312 6.408C23.0952 5.896 24.0952 5.64 25.2312 5.64C26.3672 5.64 27.3672 5.896 28.2312 6.408C29.0952 6.92 29.7592 7.648 30.2232 8.592C30.7032 9.536 30.9432 10.64 30.9432 11.904C30.9432 13.168 30.7032 14.272 30.2232 15.216C29.7592 16.16 29.0952 16.888 28.2312 17.4C27.3672 17.912 26.3672 18.168 25.2312 18.168ZM25.2312 16.56C26.4312 16.56 27.3512 16.168 27.9912 15.384C28.6312 14.584 28.9512 13.424 28.9512 11.904C28.9512 10.432 28.6232 9.296 27.9672 8.496C27.3112 7.68 26.3992 7.272 25.2312 7.272C24.0472 7.272 23.1272 7.68 22.4712 8.496C21.8152 9.296 21.4872 10.432 21.4872 11.904C21.4872 13.424 21.8072 14.584 22.4472 15.384C23.1032 16.168 24.0312 16.56 25.2312 16.56ZM44.6056 5.928V18H42.6856V15.816C42.3336 16.568 41.7976 17.152 41.0776 17.568C40.3736 17.968 39.5496 18.168 38.6056 18.168C37.5336 18.168 36.5896 17.912 35.7736 17.4C34.9736 16.888 34.3496 16.168 33.9016 15.24C33.4696 14.296 33.2536 13.2 33.2536 11.952C33.2536 10.704 33.4776 9.608 33.9256 8.664C34.3736 7.704 34.9976 6.96 35.7976 6.432C36.6136 5.904 37.5496 5.64 38.6056 5.64C39.5496 5.64 40.3736 5.848 41.0776 6.264C41.7816 6.68 42.3176 7.264 42.6856 8.016V5.928H44.6056ZM38.9896 16.56C40.1736 16.56 41.0856 16.16 41.7256 15.36C42.3656 14.544 42.6856 13.392 42.6856 11.904C42.6856 10.416 42.3656 9.272 41.7256 8.472C41.0856 7.672 40.1736 7.272 38.9896 7.272C37.8056 7.272 36.8776 7.688 36.2056 8.52C35.5496 9.336 35.2216 10.48 35.2216 11.952C35.2216 13.424 35.5496 14.56 36.2056 15.36C36.8616 16.16 37.7896 16.56 38.9896 16.56ZM53.9802 5.64C54.3802 5.64 54.7482 5.688 55.0842 5.784L55.0362 7.56C54.6682 7.432 54.2442 7.368 53.7642 7.368C52.5962 7.368 51.7242 7.736 51.1482 8.472C50.5882 9.192 50.3082 10.072 50.3082 11.112V18H48.3642V9.312C48.3642 8.064 48.3002 6.936 48.1722 5.928H50.0202L50.2122 8.16C50.5162 7.344 51.0042 6.72 51.6762 6.288C52.3482 5.856 53.1162 5.64 53.9802 5.64ZM57.0595 5.928H59.0035V18H57.0595V5.928ZM59.2435 0.816V3.024H56.8675V0.816H59.2435ZM69.3961 0.912H71.2681V22.368H69.3961V0.912ZM87.286 18.192C84.614 18.192 82.486 17.472 80.902 16.032L81.646 14.52C82.494 15.24 83.358 15.752 84.238 16.056C85.118 16.36 86.142 16.512 87.31 16.512C88.686 16.512 89.742 16.248 90.478 15.72C91.23 15.176 91.606 14.416 91.606 13.44C91.606 12.864 91.422 12.4 91.054 12.048C90.702 11.68 90.23 11.392 89.638 11.184C89.062 10.976 88.286 10.76 87.31 10.536C85.998 10.248 84.918 9.936 84.07 9.6C83.222 9.264 82.534 8.784 82.006 8.16C81.478 7.52 81.214 6.688 81.214 5.664C81.214 4.688 81.47 3.832 81.982 3.096C82.494 2.344 83.214 1.76 84.142 1.344C85.086 0.927999 86.182 0.719999 87.43 0.719999C88.614 0.719999 89.718 0.903999 90.742 1.272C91.766 1.64 92.63 2.176 93.334 2.88L92.566 4.392C91.766 3.704 90.95 3.2 90.118 2.88C89.302 2.56 88.406 2.4 87.43 2.4C86.102 2.4 85.062 2.688 84.31 3.264C83.558 3.824 83.182 4.6 83.182 5.592C83.182 6.456 83.51 7.104 84.166 7.536C84.822 7.968 85.83 8.344 87.19 8.664C88.662 9.016 89.814 9.344 90.646 9.648C91.494 9.936 92.198 10.384 92.758 10.992C93.318 11.584 93.598 12.376 93.598 13.368C93.598 14.328 93.342 15.176 92.83 15.912C92.318 16.632 91.582 17.192 90.622 17.592C89.678 17.992 88.566 18.192 87.286 18.192ZM96.5751 5.928H98.5191V18H96.5751V5.928ZM98.7591 0.816V3.024H96.3831V0.816H98.7591ZM113.046 5.928V17.904C113.046 19.696 112.582 21.048 111.654 21.96C110.742 22.888 109.39 23.352 107.598 23.352C105.758 23.352 104.174 22.936 102.846 22.104L103.182 20.52C103.95 20.952 104.67 21.264 105.342 21.456C106.03 21.648 106.782 21.744 107.598 21.744C108.766 21.744 109.646 21.432 110.238 20.808C110.83 20.2 111.126 19.288 111.126 18.072V15.216C110.758 15.984 110.214 16.584 109.494 17.016C108.79 17.432 107.95 17.64 106.974 17.64C105.918 17.64 104.974 17.392 104.142 16.896C103.326 16.4 102.694 15.696 102.246 14.784C101.798 13.872 101.574 12.824 101.574 11.64C101.574 10.456 101.798 9.408 102.246 8.496C102.694 7.584 103.326 6.88 104.142 6.384C104.974 5.888 105.918 5.64 106.974 5.64C107.934 5.64 108.766 5.848 109.47 6.264C110.19 6.68 110.734 7.264 111.102 8.016V5.928H113.046ZM107.358 16.008C108.526 16.008 109.438 15.624 110.094 14.856C110.766 14.072 111.102 13 111.102 11.64C111.102 10.28 110.766 9.216 110.094 8.448C109.438 7.664 108.526 7.272 107.358 7.272C106.174 7.272 105.238 7.664 104.55 8.448C103.878 9.216 103.542 10.28 103.542 11.64C103.542 13 103.878 14.072 104.55 14.856C105.238 15.624 106.174 16.008 107.358 16.008ZM122.802 5.64C125.698 5.64 127.146 7.232 127.146 10.416V18H125.202V10.512C125.202 9.392 124.978 8.576 124.53 8.064C124.082 7.536 123.378 7.272 122.418 7.272C121.298 7.272 120.402 7.616 119.73 8.304C119.058 8.992 118.722 9.92 118.722 11.088V18H116.778V9.312C116.778 8.064 116.714 6.936 116.586 5.928H118.434L118.626 8.088C118.994 7.304 119.546 6.704 120.282 6.288C121.018 5.856 121.858 5.64 122.802 5.64ZM140.921 5.928V18H139.025V15.912C138.641 16.648 138.105 17.208 137.417 17.592C136.729 17.976 135.953 18.168 135.089 18.168C133.665 18.168 132.585 17.768 131.849 16.968C131.113 16.168 130.745 14.984 130.745 13.416V5.928H132.689V13.368C132.689 14.456 132.913 15.256 133.361 15.768C133.809 16.28 134.489 16.536 135.401 16.536C136.473 16.536 137.337 16.192 137.993 15.504C138.649 14.8 138.977 13.88 138.977 12.744V5.928H140.921ZM150.693 5.64C151.749 5.64 152.685 5.904 153.501 6.432C154.317 6.96 154.949 7.704 155.397 8.664C155.845 9.608 156.069 10.704 156.069 11.952C156.069 13.2 155.845 14.296 155.397 15.24C154.949 16.168 154.317 16.888 153.501 17.4C152.701 17.912 151.765 18.168 150.693 18.168C149.749 18.168 148.925 17.96 148.221 17.544C147.517 17.128 146.981 16.536 146.613 15.768V23.184H144.669V9.312C144.669 8.064 144.605 6.936 144.477 5.928H146.325L146.517 8.256C146.853 7.424 147.381 6.784 148.101 6.336C148.837 5.872 149.701 5.64 150.693 5.64ZM150.333 16.56C151.517 16.56 152.429 16.16 153.069 15.36C153.725 14.56 154.053 13.424 154.053 11.952C154.053 10.48 153.725 9.336 153.069 8.52C152.413 7.688 151.501 7.272 150.333 7.272C149.133 7.272 148.213 7.672 147.573 8.472C146.933 9.272 146.613 10.416 146.613 11.904C146.613 13.392 146.933 14.544 147.573 15.36C148.213 16.16 149.133 16.56 150.333 16.56Z" fill="#1F2041"/>
</svg>
