<svg width="139" height="24" viewBox="0 0 139 24" fill="none" xmlns="http://www.w3.org/2000/svg">
<path d="M16.264 0.912V18H14.44V5.304L8.896 18H7.504L1.912 5.4L1.936 18H0.112V0.912H1.744L8.224 15.648L14.632 0.912H16.264ZM25.2312 18.168C24.0952 18.168 23.0952 17.912 22.2312 17.4C21.3672 16.888 20.6952 16.16 20.2152 15.216C19.7512 14.272 19.5192 13.168 19.5192 11.904C19.5192 10.64 19.7512 9.536 20.2152 8.592C20.6952 7.648 21.3672 6.92 22.2312 6.408C23.0952 5.896 24.0952 5.64 25.2312 5.64C26.3672 5.64 27.3672 5.896 28.2312 6.408C29.0952 6.92 29.7592 7.648 30.2232 8.592C30.7032 9.536 30.9432 10.64 30.9432 11.904C30.9432 13.168 30.7032 14.272 30.2232 15.216C29.7592 16.16 29.0952 16.888 28.2312 17.4C27.3672 17.912 26.3672 18.168 25.2312 18.168ZM25.2312 16.56C26.4312 16.56 27.3512 16.168 27.9912 15.384C28.6312 14.584 28.9512 13.424 28.9512 11.904C28.9512 10.432 28.6232 9.296 27.9672 8.496C27.3112 7.68 26.3992 7.272 25.2312 7.272C24.0472 7.272 23.1272 7.68 22.4712 8.496C21.8152 9.296 21.4872 10.432 21.4872 11.904C21.4872 13.424 21.8072 14.584 22.4472 15.384C23.1032 16.168 24.0312 16.56 25.2312 16.56ZM44.6056 5.928V18H42.6856V15.816C42.3336 16.568 41.7976 17.152 41.0776 17.568C40.3736 17.968 39.5496 18.168 38.6056 18.168C37.5336 18.168 36.5896 17.912 35.7736 17.4C34.9736 16.888 34.3496 16.168 33.9016 15.24C33.4696 14.296 33.2536 13.2 33.2536 11.952C33.2536 10.704 33.4776 9.608 33.9256 8.664C34.3736 7.704 34.9976 6.96 35.7976 6.432C36.6136 5.904 37.5496 5.64 38.6056 5.64C39.5496 5.64 40.3736 5.848 41.0776 6.264C41.7816 6.68 42.3176 7.264 42.6856 8.016V5.928H44.6056ZM38.9896 16.56C40.1736 16.56 41.0856 16.16 41.7256 15.36C42.3656 14.544 42.6856 13.392 42.6856 11.904C42.6856 10.416 42.3656 9.272 41.7256 8.472C41.0856 7.672 40.1736 7.272 38.9896 7.272C37.8056 7.272 36.8776 7.688 36.2056 8.52C35.5496 9.336 35.2216 10.48 35.2216 11.952C35.2216 13.424 35.5496 14.56 36.2056 15.36C36.8616 16.16 37.7896 16.56 38.9896 16.56ZM53.9802 5.64C54.3802 5.64 54.7482 5.688 55.0842 5.784L55.0362 7.56C54.6682 7.432 54.2442 7.368 53.7642 7.368C52.5962 7.368 51.7242 7.736 51.1482 8.472C50.5882 9.192 50.3082 10.072 50.3082 11.112V18H48.3642V9.312C48.3642 8.064 48.3002 6.936 48.1722 5.928H50.0202L50.2122 8.16C50.5162 7.344 51.0042 6.72 51.6762 6.288C52.3482 5.856 53.1162 5.64 53.9802 5.64ZM57.0595 5.928H59.0035V18H57.0595V5.928ZM59.2435 0.816V3.024H56.8675V0.816H59.2435ZM69.3961 0.912H71.2681V22.368H69.3961V0.912ZM81.862 0.912H83.83V16.32H92.398V18H81.862V0.912ZM99.6687 18.168C98.5327 18.168 97.5327 17.912 96.6687 17.4C95.8047 16.888 95.1327 16.16 94.6527 15.216C94.1887 14.272 93.9567 13.168 93.9567 11.904C93.9567 10.64 94.1887 9.536 94.6527 8.592C95.1327 7.648 95.8047 6.92 96.6687 6.408C97.5327 5.896 98.5327 5.64 99.6687 5.64C100.805 5.64 101.805 5.896 102.669 6.408C103.533 6.92 104.197 7.648 104.661 8.592C105.141 9.536 105.381 10.64 105.381 11.904C105.381 13.168 105.141 14.272 104.661 15.216C104.197 16.16 103.533 16.888 102.669 17.4C101.805 17.912 100.805 18.168 99.6687 18.168ZM99.6687 16.56C100.869 16.56 101.789 16.168 102.429 15.384C103.069 14.584 103.389 13.424 103.389 11.904C103.389 10.432 103.061 9.296 102.405 8.496C101.749 7.68 100.837 7.272 99.6687 7.272C98.4847 7.272 97.5647 7.68 96.9087 8.496C96.2527 9.296 95.9247 10.432 95.9247 11.904C95.9247 13.424 96.2447 14.584 96.8847 15.384C97.5407 16.168 98.4687 16.56 99.6687 16.56ZM119.163 5.928V17.904C119.163 19.696 118.699 21.048 117.771 21.96C116.859 22.888 115.507 23.352 113.715 23.352C111.875 23.352 110.291 22.936 108.963 22.104L109.299 20.52C110.067 20.952 110.787 21.264 111.459 21.456C112.147 21.648 112.899 21.744 113.715 21.744C114.883 21.744 115.763 21.432 116.355 20.808C116.947 20.2 117.243 19.288 117.243 18.072V15.216C116.875 15.984 116.331 16.584 115.611 17.016C114.907 17.432 114.067 17.64 113.091 17.64C112.035 17.64 111.091 17.392 110.259 16.896C109.443 16.4 108.811 15.696 108.363 14.784C107.915 13.872 107.691 12.824 107.691 11.64C107.691 10.456 107.915 9.408 108.363 8.496C108.811 7.584 109.443 6.88 110.259 6.384C111.091 5.888 112.035 5.64 113.091 5.64C114.051 5.64 114.883 5.848 115.587 6.264C116.307 6.68 116.851 7.264 117.219 8.016V5.928H119.163ZM113.475 16.008C114.643 16.008 115.555 15.624 116.211 14.856C116.883 14.072 117.219 13 117.219 11.64C117.219 10.28 116.883 9.216 116.211 8.448C115.555 7.664 114.643 7.272 113.475 7.272C112.291 7.272 111.355 7.664 110.667 8.448C109.995 9.216 109.659 10.28 109.659 11.64C109.659 13 109.995 14.072 110.667 14.856C111.355 15.624 112.291 16.008 113.475 16.008ZM122.895 5.928H124.839V18H122.895V5.928ZM125.079 0.816V3.024H122.703V0.816H125.079ZM134.638 5.64C137.534 5.64 138.982 7.232 138.982 10.416V18H137.038V10.512C137.038 9.392 136.814 8.576 136.366 8.064C135.918 7.536 135.214 7.272 134.254 7.272C133.134 7.272 132.238 7.616 131.566 8.304C130.894 8.992 130.558 9.92 130.558 11.088V18H128.614V9.312C128.614 8.064 128.55 6.936 128.422 5.928H130.27L130.462 8.088C130.83 7.304 131.382 6.704 132.118 6.288C132.854 5.856 133.694 5.64 134.638 5.64Z" fill="#1F2041"/>
</svg>
