<svg width="96" height="36" viewBox="0 0 96 36" fill="none" xmlns="http://www.w3.org/2000/svg">
<path d="M0 18C0 8.05888 8.05888 0 18 0H78C87.9411 0 96 8.05888 96 18C96 27.9411 87.9411 36 78 36H18C8.05888 36 0 27.9411 0 18Z" fill="url(#paint0_linear)"/>
<path d="M24.4814 23L24.4674 17.12L21.5834 21.964H20.5614L17.6914 17.246V23H15.5634V13.2H17.4394L21.1074 19.29L24.7194 13.2H26.5814L26.6094 23H24.4814ZM33.6385 19.528V23H31.3705V19.5L27.5765 13.2H29.9845L32.6025 17.554L35.2205 13.2H37.4465L33.6385 19.528ZM46.6022 13.2C47.4702 13.2 48.2216 13.3447 48.8562 13.634C49.5002 13.9233 49.9949 14.334 50.3402 14.866C50.6856 15.398 50.8582 16.028 50.8582 16.756C50.8582 17.4747 50.6856 18.1047 50.3402 18.646C49.9949 19.178 49.5002 19.5887 48.8562 19.878C48.2216 20.158 47.4702 20.298 46.6022 20.298H44.6282V23H42.3602V13.2H46.6022ZM46.4762 18.45C47.1576 18.45 47.6756 18.3053 48.0302 18.016C48.3849 17.7173 48.5622 17.2973 48.5622 16.756C48.5622 16.2053 48.3849 15.7853 48.0302 15.496C47.6756 15.1973 47.1576 15.048 46.4762 15.048H44.6282V18.45H46.4762ZM58.4392 20.9H53.8892L53.0212 23H50.6972L55.0652 13.2H57.3052L61.6872 23H59.3072L58.4392 20.9ZM57.7252 19.178L56.1712 15.426L54.6172 19.178H57.7252ZM69.1893 17.946H71.2613V21.922C70.7293 22.3233 70.1133 22.6313 69.4133 22.846C68.7133 23.0607 68.0086 23.168 67.2993 23.168C66.2819 23.168 65.3673 22.9533 64.5553 22.524C63.7433 22.0853 63.1039 21.4833 62.6373 20.718C62.1799 19.9433 61.9513 19.0707 61.9513 18.1C61.9513 17.1293 62.1799 16.2613 62.6373 15.496C63.1039 14.7213 63.7479 14.1193 64.5693 13.69C65.3906 13.2513 66.3146 13.032 67.3413 13.032C68.1999 13.032 68.9793 13.1767 69.6793 13.466C70.3793 13.7553 70.9673 14.1753 71.4433 14.726L69.9873 16.07C69.2873 15.3327 68.4426 14.964 67.4533 14.964C66.8279 14.964 66.2726 15.0947 65.7873 15.356C65.3019 15.6173 64.9239 15.986 64.6533 16.462C64.3826 16.938 64.2473 17.484 64.2473 18.1C64.2473 18.7067 64.3826 19.248 64.6533 19.724C64.9239 20.2 65.2973 20.5733 65.7733 20.844C66.2586 21.1053 66.8093 21.236 67.4253 21.236C68.0786 21.236 68.6666 21.096 69.1893 20.816V17.946ZM80.9561 21.18V23H73.3681V13.2H80.7741V15.02H75.6221V17.148H80.1721V18.912H75.6221V21.18H80.9561Z" fill="white"/>
<defs>
<linearGradient id="paint0_linear" x1="48" y1="0" x2="48" y2="36" gradientUnits="userSpaceOnUse">
<stop stop-color="#BC9CFF"/>
<stop offset="1" stop-color="#8BA4F9"/>
</linearGradient>
</defs>
</svg>
