<svg width="144" height="52" viewBox="0 0 144 52" fill="none" xmlns="http://www.w3.org/2000/svg">
<path d="M0 22C0 9.84974 9.84974 0 22 0H122C134.15 0 144 9.84974 144 22V30C144 42.1503 134.15 52 122 52H22C9.84974 52 0 42.1503 0 30V22Z" fill="url(#paint0_linear)"/>
<path d="M52.9588 21.524H43.8508V19.31H52.8688V17.42H41.4928V23.396H52.9588V21.524ZM47.1088 31.748C44.8948 31.748 43.7608 31.37 43.7608 30.506C43.7608 29.642 44.8948 29.246 47.1088 29.246C49.3228 29.246 50.4568 29.642 50.4568 30.506C50.4568 31.37 49.3228 31.748 47.1088 31.748ZM47.1088 27.446C43.5268 27.446 41.3668 28.544 41.3668 30.506C41.3668 32.45 43.5268 33.548 47.1088 33.548C50.6908 33.548 52.8688 32.45 52.8688 30.506C52.8688 28.544 50.6908 27.446 47.1088 27.446ZM39.6748 24.548V26.492H54.6688V24.548H39.6748ZM57.8714 30.542H67.1234V33.494H69.4994V28.67H57.8714V30.542ZM64.9094 25.844V24.656H69.7334V22.856H60.4274V21.776H69.3914V17.294H58.0514V19.094H67.0514V20.102H58.0874V24.656H62.5334V25.844H56.2154V27.734H71.2274V25.844H64.9094ZM77.562 28.22C76.446 28.22 75.618 27.464 75.618 26.204C75.618 24.944 76.446 24.17 77.562 24.17C78.678 24.17 79.488 24.944 79.488 26.186C79.488 27.464 78.678 28.22 77.562 28.22ZM77.562 22.244C75.15 22.244 73.35 23.882 73.35 26.186C73.35 28.526 75.15 30.164 77.562 30.164C79.956 30.164 81.738 28.526 81.738 26.186C81.738 23.882 79.956 22.244 77.562 22.244ZM78.732 17.258H76.356V19.418H72.684V21.308H82.332V19.418H78.732V17.258ZM88.164 23.45H85.788V16.97H83.412V33.548H85.788V25.412H88.164V23.45ZM90.2506 18.68V20.57H95.7766C95.4346 24.242 93.5986 26.834 89.3686 28.868L90.6106 30.74C96.4966 27.896 98.2066 23.756 98.2066 18.68H90.2506ZM100.745 16.952V33.53H103.139V16.952H100.745Z" fill="white"/>
<defs>
<linearGradient id="paint0_linear" x1="72" y1="0" x2="72" y2="52" gradientUnits="userSpaceOnUse">
<stop stop-color="#BC9CFF"/>
<stop offset="1" stop-color="#8BA4F9"/>
</linearGradient>
</defs>
</svg>
