<svg width="26" height="26" viewBox="0 0 26 26" fill="none" xmlns="http://www.w3.org/2000/svg">
<path opacity="0.5" fill-rule="evenodd" clip-rule="evenodd" d="M24.5976 25.9621C24.1983 25.9616 23.8185 25.805 23.555 25.5322L18.1887 20.0067C14.8776 21.9039 10.7506 22.1931 7.15899 20.7798C3.56738 19.3665 0.973677 16.4326 0.227128 12.9387C-0.753535 8.42967 1.50029 3.84853 5.85035 1.5089C10.2004 -0.830734 15.7001 -0.419736 19.5719 2.53432C23.4437 5.48838 24.8451 10.3427 23.0684 14.6456C22.7958 15.2986 21.9929 15.6269 21.275 15.379C20.5571 15.1311 20.1961 14.4008 20.4687 13.7479C21.5102 11.2278 21.1444 8.40494 19.4871 6.17418C17.8299 3.94341 15.0867 2.58143 12.1274 2.52001C9.36754 2.44288 6.72209 3.52466 4.95386 5.45343C2.07732 8.58132 2.1223 13.1457 5.06002 16.2261C7.99774 19.3066 12.9595 19.9924 16.7707 17.8446C17.93 17.2247 19.411 17.4483 20.2879 18.3756L25.6542 23.9011C26.0143 24.2739 26.1013 24.8039 25.8767 25.2562C25.652 25.7085 25.1572 25.9994 24.6115 26L24.5976 25.9621Z" fill="url(#paint0_linear)"/>
<defs>
<linearGradient id="paint0_linear" x1="13" y1="0" x2="13" y2="26" gradientUnits="userSpaceOnUse">
<stop stop-color="#BC9CFF"/>
<stop offset="1" stop-color="#8BA4F9"/>
</linearGradient>
</defs>
</svg>
