<svg width="32" height="32" viewBox="0 0 32 32" fill="none" xmlns="http://www.w3.org/2000/svg">
<path opacity="0.5" fill-rule="evenodd" clip-rule="evenodd" d="M30.274 31.9533C29.7825 31.9527 29.3151 31.76 28.9907 31.4242L22.3861 24.6237C18.3109 26.9586 13.2315 27.3146 8.81107 25.5751C4.39063 23.8356 1.19837 20.2247 0.279543 15.9246C-0.927428 10.375 1.84651 4.73665 7.20043 1.8571C12.5544 -1.02244 19.3232 -0.516599 24.0885 3.11917C28.8538 6.75493 30.5786 12.7295 28.3919 18.0254C28.0564 18.829 27.0682 19.2331 26.1846 18.928C25.3011 18.6229 24.8567 17.7241 25.1922 16.9205C26.4741 13.8189 26.0239 10.3445 23.9842 7.59899C21.9445 4.85343 18.5683 3.17714 14.926 3.10155C11.5293 3.00662 8.27334 4.33805 6.09706 6.71192C2.55671 10.5616 2.61206 16.1793 6.22772 19.9706C9.84337 23.762 15.9501 24.606 20.6409 21.9626C22.0677 21.1996 23.8905 21.4748 24.9698 22.6162L31.5744 29.4167C32.0176 29.8756 32.1247 30.5279 31.8482 31.0845C31.5717 31.6412 30.9627 31.9992 30.2911 32L30.274 31.9533Z" fill="#1F2041"/>
</svg>
