<svg width="96" height="36" viewBox="0 0 96 36" fill="none" xmlns="http://www.w3.org/2000/svg">
<path d="M0 18C0 8.05888 8.05888 0 18 0H78C87.9411 0 96 8.05888 96 18C96 27.9411 87.9411 36 78 36H18C8.05888 36 0 27.9411 0 18Z" fill="url(#paint0_linear)"/>
<path d="M23.924 23.168C23.1493 23.168 22.398 23.0653 21.67 22.86C20.9513 22.6453 20.3727 22.37 19.934 22.034L20.704 20.326C21.124 20.634 21.6233 20.8813 22.202 21.068C22.7807 21.2547 23.3593 21.348 23.938 21.348C24.582 21.348 25.058 21.2547 25.366 21.068C25.674 20.872 25.828 20.6153 25.828 20.298C25.828 20.0647 25.7347 19.8733 25.548 19.724C25.3707 19.5653 25.1373 19.4393 24.848 19.346C24.568 19.2527 24.1853 19.15 23.7 19.038C22.9533 18.8607 22.342 18.6833 21.866 18.506C21.39 18.3287 20.9793 18.044 20.634 17.652C20.298 17.26 20.13 16.7373 20.13 16.084C20.13 15.5147 20.284 15.0013 20.592 14.544C20.9 14.0773 21.362 13.7087 21.978 13.438C22.6033 13.1673 23.364 13.032 24.26 13.032C24.8853 13.032 25.4967 13.1067 26.094 13.256C26.6913 13.4053 27.214 13.62 27.662 13.9L26.962 15.622C26.0567 15.1087 25.1513 14.852 24.246 14.852C23.6113 14.852 23.14 14.9547 22.832 15.16C22.5333 15.3653 22.384 15.636 22.384 15.972C22.384 16.308 22.5567 16.56 22.902 16.728C23.2567 16.8867 23.7933 17.0453 24.512 17.204C25.2587 17.3813 25.87 17.5587 26.346 17.736C26.822 17.9133 27.228 18.1933 27.564 18.576C27.9093 18.9587 28.082 19.4767 28.082 20.13C28.082 20.69 27.9233 21.2033 27.606 21.67C27.298 22.1273 26.8313 22.4913 26.206 22.762C25.5807 23.0327 24.82 23.168 23.924 23.168ZM29.6317 13.2H31.8997V23H29.6317V13.2ZM40.8475 17.946H42.9195V21.922C42.3875 22.3233 41.7715 22.6313 41.0715 22.846C40.3715 23.0607 39.6668 23.168 38.9575 23.168C37.9401 23.168 37.0255 22.9533 36.2135 22.524C35.4015 22.0853 34.7621 21.4833 34.2955 20.718C33.8381 19.9433 33.6095 19.0707 33.6095 18.1C33.6095 17.1293 33.8381 16.2613 34.2955 15.496C34.7621 14.7213 35.4061 14.1193 36.2275 13.69C37.0488 13.2513 37.9728 13.032 38.9995 13.032C39.8581 13.032 40.6375 13.1767 41.3375 13.466C42.0375 13.7553 42.6255 14.1753 43.1015 14.726L41.6455 16.07C40.9455 15.3327 40.1008 14.964 39.1115 14.964C38.4861 14.964 37.9308 15.0947 37.4455 15.356C36.9601 15.6173 36.5821 15.986 36.3115 16.462C36.0408 16.938 35.9055 17.484 35.9055 18.1C35.9055 18.7067 36.0408 19.248 36.3115 19.724C36.5821 20.2 36.9555 20.5733 37.4315 20.844C37.9168 21.1053 38.4675 21.236 39.0835 21.236C39.7368 21.236 40.3248 21.096 40.8475 20.816V17.946ZM54.0143 13.2V23H52.1523L47.2663 17.05V23H45.0263V13.2H46.9023L51.7743 19.15V13.2H54.0143ZM60.6869 23.168C59.2869 23.168 58.1949 22.7807 57.4109 22.006C56.6362 21.2313 56.2489 20.1253 56.2489 18.688V13.2H58.5169V18.604C58.5169 20.3587 59.2449 21.236 60.7009 21.236C61.4102 21.236 61.9516 21.026 62.3249 20.606C62.6982 20.1767 62.8849 19.5093 62.8849 18.604V13.2H65.1249V18.688C65.1249 20.1253 64.7329 21.2313 63.9489 22.006C63.1742 22.7807 62.0869 23.168 60.6869 23.168ZM71.6081 13.2C72.4761 13.2 73.2274 13.3447 73.8621 13.634C74.5061 13.9233 75.0008 14.334 75.3461 14.866C75.6914 15.398 75.8641 16.028 75.8641 16.756C75.8641 17.4747 75.6914 18.1047 75.3461 18.646C75.0008 19.178 74.5061 19.5887 73.8621 19.878C73.2274 20.158 72.4761 20.298 71.6081 20.298H69.6341V23H67.3661V13.2H71.6081ZM71.4821 18.45C72.1634 18.45 72.6814 18.3053 73.0361 18.016C73.3908 17.7173 73.5681 17.2973 73.5681 16.756C73.5681 16.2053 73.3908 15.7853 73.0361 15.496C72.6814 15.1973 72.1634 15.048 71.4821 15.048H69.6341V18.45H71.4821Z" fill="white"/>
<defs>
<linearGradient id="paint0_linear" x1="48" y1="0" x2="48" y2="36" gradientUnits="userSpaceOnUse">
<stop stop-color="#BC9CFF"/>
<stop offset="1" stop-color="#8BA4F9"/>
</linearGradient>
</defs>
</svg>
