<svg width="480" height="52" viewBox="0 0 480 52" fill="none" xmlns="http://www.w3.org/2000/svg">
<rect x="0.5" y="0.5" width="479" height="50.4149" rx="3.5" fill="url(#paint0_linear)" stroke="url(#paint1_linear)"/>
<path d="M211.583 18.34H207.383V16.36H204.743V18.34H200.523V20.4H211.583V18.34ZM204.003 24.58C204.003 23.64 204.843 23.12 206.063 23.12C207.303 23.12 208.123 23.64 208.123 24.58C208.123 25.54 207.303 26.06 206.063 26.06C204.843 26.06 204.003 25.54 204.003 24.58ZM207.383 27.92C209.343 27.54 210.623 26.3 210.623 24.58C210.623 22.52 208.743 21.12 206.063 21.12C203.363 21.12 201.483 22.52 201.483 24.58C201.483 26.3 202.763 27.54 204.743 27.92V29.48C203.103 29.52 201.543 29.52 200.163 29.52L200.483 31.66C203.743 31.66 208.003 31.64 212.023 30.9L211.823 28.98C210.383 29.18 208.883 29.28 207.383 29.38V27.92ZM212.783 16.3V34.72H215.423V16.3H212.783ZM227.862 27V28.8H231.322V30.26H233.962V16.3H231.322V27H227.862ZM224.322 18.84C225.542 18.84 226.402 19.32 226.402 20.22C226.402 21.12 225.542 21.58 224.322 21.58C223.082 21.58 222.222 21.12 222.222 20.22C222.222 19.32 223.082 18.84 224.322 18.84ZM224.322 23.5C227.002 23.5 228.902 22.18 228.902 20.22C228.902 18.26 227.002 16.92 224.322 16.92C221.622 16.92 219.742 18.26 219.742 20.22C219.742 22.18 221.622 23.5 224.322 23.5ZM223.342 32.3V29.78H225.882V26.3C227.362 26.18 228.842 26.02 230.282 25.78L230.102 23.9C226.222 24.4 221.742 24.44 218.382 24.46L218.722 26.56C220.102 26.56 221.642 26.54 223.262 26.46V28.92H220.702V34.4H234.362V32.3H223.342ZM237.7 18.18V20.32H243.72C243.24 24.4 240.96 27.32 236.68 29.52L238.16 31.54C244.28 28.44 246.38 23.7 246.38 18.18H237.7ZM253.86 23.32H251.28V16.28H248.64V34.68H251.28V25.5H253.86V23.32ZM267.898 16.3V26.2H270.558V16.3H267.898ZM258.318 27V34.5H270.558V27H267.938V28.72H260.938V27H258.318ZM260.938 30.74H267.938V32.4H260.938V30.74ZM260.538 17.06C257.678 17.06 255.518 18.88 255.518 21.4C255.518 23.94 257.678 25.76 260.538 25.76C263.398 25.76 265.538 23.94 265.538 21.4C265.538 18.88 263.398 17.06 260.538 17.06ZM260.538 19.24C261.938 19.24 262.958 20.06 262.958 21.4C262.958 22.78 261.938 23.58 260.538 23.58C259.138 23.58 258.098 22.78 258.098 21.4C258.098 20.06 259.138 19.24 260.538 19.24Z" fill="white"/>
<defs>
<linearGradient id="paint0_linear" x1="240" y1="0" x2="240" y2="51.4149" gradientUnits="userSpaceOnUse">
<stop stop-color="#BC9CFF"/>
<stop offset="1" stop-color="#8BA4F9"/>
</linearGradient>
<linearGradient id="paint1_linear" x1="240" y1="0" x2="240" y2="51.4149" gradientUnits="userSpaceOnUse">
<stop stop-color="#BC9CFF"/>
<stop offset="1" stop-color="#8BA4F9"/>
</linearGradient>
</defs>
</svg>
