<svg width="108" height="44" viewBox="0 0 108 44" fill="none" xmlns="http://www.w3.org/2000/svg">
<path d="M0 3.99975C0 1.79062 1.79086 -0.000244141 4 -0.000244141H86C98.1503 -0.000244141 108 9.84949 108 21.9998C108 34.15 98.1503 43.9998 86 43.9998H4C1.79086 43.9998 0 42.2089 0 39.9998V3.99975Z" fill="url(#paint0_linear)"/>
<path d="M15.7718 17.7178H21.3298V21.1338H15.7718V17.7178ZM19.4818 25.2078V22.5898H23.1358V16.2618H13.9658V22.5898H17.6338V25.2078H12.7338V26.7058H24.4098V25.2078H19.4818ZM33.6487 20.7278C31.6887 20.1538 30.7367 18.8238 30.6387 17.4658H33.1727V16.0098H26.1587V17.4658H28.7347C28.6367 18.9218 27.6987 20.3218 25.6547 20.9238L26.5787 22.3798C28.0907 21.9178 29.1267 20.9518 29.7147 19.7478C30.3027 20.8538 31.2967 21.7358 32.7527 22.1558L33.6487 20.7278ZM34.4887 26.5798H29.5887V25.4458H34.4887V26.5798ZM34.4887 24.0318H29.5887V22.8558H27.7547V28.0498H36.3227V22.8558H34.4887V24.0318ZM34.4607 15.3238V22.3098H36.3227V15.3238H34.4607ZM43.6859 20.6578C46.1219 20.4478 47.7039 19.5378 48.3899 18.3198C49.0759 19.5378 50.6579 20.4478 53.0799 20.6578L53.7239 19.2298C51.3159 19.0198 50.0559 18.1798 49.7339 17.3118H53.1639V15.8418H43.6299V17.3118H47.0459C46.7239 18.1798 45.4639 19.0198 43.0699 19.2298L43.6859 20.6578ZM50.9659 25.8798C50.9659 26.5238 50.0839 26.8038 48.3619 26.8038C46.6399 26.8038 45.7579 26.5238 45.7579 25.8798C45.7579 25.2218 46.6399 24.9418 48.3619 24.9418C50.0839 24.9418 50.9659 25.2218 50.9659 25.8798ZM54.2139 22.6318V21.1618H42.5659V22.6318H47.4659V23.5698C45.2259 23.7518 43.8959 24.5498 43.8959 25.8798C43.8959 27.3638 45.5759 28.2038 48.3619 28.2038C51.1479 28.2038 52.8419 27.3638 52.8419 25.8798C52.8419 24.5638 51.5259 23.7658 49.3139 23.5838V22.6318H54.2139ZM59.897 17.1998H64.531C65.6043 17.1998 66.5563 17.4004 67.387 17.8018C68.2177 18.2031 68.8617 18.7724 69.319 19.5098C69.7763 20.2471 70.005 21.1104 70.005 22.0998C70.005 23.0891 69.7763 23.9524 69.319 24.6898C68.8617 25.4271 68.2177 25.9964 67.387 26.3978C66.5563 26.7991 65.6043 26.9998 64.531 26.9998H59.897V17.1998ZM64.419 24.7878C65.259 24.7878 65.931 24.5498 66.435 24.0738C66.9483 23.5978 67.205 22.9398 67.205 22.0998C67.205 21.2598 66.9483 20.6018 66.435 20.1258C65.931 19.6498 65.259 19.4118 64.419 19.4118H62.669V24.7878H64.419ZM71.1827 21.9878H75.2707V24.0318H71.1827V21.9878ZM80.2864 17.1998V26.9998H77.5144V19.3418H75.6944V17.1998H80.2864ZM86.0862 27.1958C85.2462 27.1958 84.4995 26.9951 83.8462 26.5938C83.1928 26.1924 82.6795 25.6091 82.3062 24.8438C81.9422 24.0691 81.7602 23.1544 81.7602 22.0998C81.7602 21.0451 81.9422 20.1351 82.3062 19.3698C82.6795 18.5951 83.1928 18.0071 83.8462 17.6058C84.4995 17.2044 85.2462 17.0038 86.0862 17.0038C86.9168 17.0038 87.6588 17.2044 88.3122 17.6058C88.9655 18.0071 89.4742 18.5951 89.8382 19.3698C90.2115 20.1351 90.3982 21.0451 90.3982 22.0998C90.3982 23.1544 90.2115 24.0691 89.8382 24.8438C89.4742 25.6091 88.9655 26.1924 88.3122 26.5938C87.6588 26.9951 86.9168 27.1958 86.0862 27.1958ZM86.0862 24.9278C86.5528 24.9278 86.9215 24.7038 87.1922 24.2558C87.4722 23.7984 87.6122 23.0798 87.6122 22.0998C87.6122 21.1198 87.4722 20.4058 87.1922 19.9578C86.9215 19.5004 86.5528 19.2718 86.0862 19.2718C85.6102 19.2718 85.2322 19.5004 84.9522 19.9578C84.6815 20.4058 84.5462 21.1198 84.5462 22.0998C84.5462 23.0798 84.6815 23.7984 84.9522 24.2558C85.2322 24.7038 85.6102 24.9278 86.0862 24.9278Z" fill="white"/>
<defs>
<linearGradient id="paint0_linear" x1="54" y1="-0.000244141" x2="54" y2="43.9998" gradientUnits="userSpaceOnUse">
<stop stop-color="#BC9CFF"/>
<stop offset="1" stop-color="#8BA4F9"/>
</linearGradient>
</defs>
</svg>
