<svg width="108" height="44" viewBox="0 0 108 44" fill="none" xmlns="http://www.w3.org/2000/svg">
<path d="M0 3.99975C0 1.79062 1.79086 -0.000244141 4 -0.000244141H86C98.1503 -0.000244141 108 9.84949 108 21.9998C108 34.15 98.1503 43.9998 86 43.9998H4C1.79086 43.9998 0 42.2089 0 39.9998V3.99975Z" fill="url(#paint0_linear)"/>
<path d="M18.8685 17.7178H24.4265V21.1338H18.8685V17.7178ZM22.5785 25.2078V22.5898H26.2325V16.2618H17.0625V22.5898H20.7305V25.2078H15.8305V26.7058H27.5065V25.2078H22.5785ZM36.7454 20.7278C34.7854 20.1538 33.8334 18.8238 33.7354 17.4658H36.2694V16.0098H29.2554V17.4658H31.8314C31.7334 18.9218 30.7954 20.3218 28.7514 20.9238L29.6754 22.3798C31.1874 21.9178 32.2234 20.9518 32.8114 19.7478C33.3994 20.8538 34.3934 21.7358 35.8494 22.1558L36.7454 20.7278ZM37.5854 26.5798H32.6854V25.4458H37.5854V26.5798ZM37.5854 24.0318H32.6854V22.8558H30.8514V28.0498H39.4194V22.8558H37.5854V24.0318ZM37.5574 15.3238V22.3098H39.4194V15.3238H37.5574ZM46.8385 21.1198C49.2465 20.8538 50.8285 19.8598 51.4865 18.5438C52.1725 19.8598 53.7405 20.8538 56.1345 21.1198L56.8065 19.6778C54.2865 19.3978 53.0125 18.3618 52.8025 17.3258H56.2745V15.8558H46.7265V17.3258H50.1845C49.9605 18.3478 48.6725 19.3978 46.1805 19.6778L46.8385 21.1198ZM48.8545 24.2698H47.0065V27.9798H56.0365V26.5098H48.8545V24.2698ZM45.6485 21.7358V23.1918H50.7305V25.3758H52.5785V23.1918H57.3385V21.7358H45.6485ZM67.3755 15.2958V28.2318H69.2235V15.2958H67.3755ZM59.1715 16.3318V25.2218H65.5275V16.3318H63.6935V19.4538H61.0055V16.3318H59.1715ZM61.0055 20.8958H63.6935V23.7518H61.0055V20.8958ZM76.6146 20.6578C79.0506 20.4478 80.6326 19.5378 81.3186 18.3198C82.0046 19.5378 83.5866 20.4478 86.0086 20.6578L86.6526 19.2298C84.2446 19.0198 82.9846 18.1798 82.6626 17.3118H86.0926V15.8418H76.5586V17.3118H79.9746C79.6526 18.1798 78.3926 19.0198 75.9986 19.2298L76.6146 20.6578ZM83.8946 25.8798C83.8946 26.5238 83.0126 26.8038 81.2906 26.8038C79.5686 26.8038 78.6866 26.5238 78.6866 25.8798C78.6866 25.2218 79.5686 24.9418 81.2906 24.9418C83.0126 24.9418 83.8946 25.2218 83.8946 25.8798ZM87.1426 22.6318V21.1618H75.4946V22.6318H80.3946V23.5698C78.1546 23.7518 76.8246 24.5498 76.8246 25.8798C76.8246 27.3638 78.5046 28.2038 81.2906 28.2038C84.0766 28.2038 85.7706 27.3638 85.7706 25.8798C85.7706 24.5638 84.4546 23.7658 82.2426 23.5838V22.6318H87.1426Z" fill="white"/>
<defs>
<linearGradient id="paint0_linear" x1="54" y1="-0.000244141" x2="54" y2="43.9998" gradientUnits="userSpaceOnUse">
<stop stop-color="#6FCF97"/>
<stop offset="1" stop-color="#66D2EA"/>
</linearGradient>
</defs>
</svg>
