<svg width="108" height="44" viewBox="0 0 108 44" fill="none" xmlns="http://www.w3.org/2000/svg">
<path d="M1.25 4C1.25 2.48122 2.48122 1.25 4 1.25H86C97.4599 1.25 106.75 10.5401 106.75 22C106.75 33.4599 97.4599 42.75 86 42.75H4C2.48122 42.75 1.25 41.5188 1.25 40V4Z" fill="white" stroke="url(#paint0_linear)" stroke-width="2.5"/>
<path d="M26.8451 17.718H32.4031V21.134H26.8451V17.718ZM30.5551 25.208V22.59H34.2091V16.262H25.0391V22.59H28.7071V25.208H23.8071V26.706H35.4831V25.208H30.5551ZM44.722 20.728C42.762 20.154 41.81 18.824 41.712 17.466H44.246V16.01H37.232V17.466H39.808C39.71 18.922 38.772 20.322 36.728 20.924L37.652 22.38C39.164 21.918 40.2 20.952 40.788 19.748C41.376 20.854 42.37 21.736 43.826 22.156L44.722 20.728ZM45.562 26.58H40.662V25.446H45.562V26.58ZM45.562 24.032H40.662V22.856H38.828V28.05H47.396V22.856H45.562V24.032ZM45.534 15.324V22.31H47.396V15.324H45.534ZM54.7591 20.672C57.1951 20.434 58.7771 19.538 59.4631 18.306C60.1351 19.538 61.7311 20.434 64.1531 20.672L64.7971 19.216C62.3891 19.02 61.1291 18.18 60.8071 17.312H64.2371V15.842H54.7031V17.312H58.1191C57.7971 18.18 56.5371 19.02 54.1291 19.216L54.7591 20.672ZM59.4351 26.832C57.6991 26.832 56.8311 26.566 56.8311 25.936C56.8311 25.32 57.6991 25.04 59.4351 25.04C61.1711 25.04 62.0391 25.32 62.0391 25.936C62.0391 26.566 61.1711 26.832 59.4351 26.832ZM59.4351 23.654C56.6351 23.654 54.9691 24.48 54.9691 25.936C54.9691 27.392 56.6351 28.204 59.4351 28.204C62.2351 28.204 63.9151 27.392 63.9151 25.936C63.9151 24.48 62.2351 23.654 59.4351 23.654ZM60.3731 21.484V19.944H58.5251V21.484H53.6391V22.954H65.2871V21.484H60.3731ZM71.292 23.304H73.546V25.278H71.292V23.304ZM75.366 25.278V23.304H77.172V21.834H69.696V20.42H76.878V16.136H67.848V17.606H75.058V18.978H67.862V23.304H69.472V25.278H66.504V26.79H78.194V25.278H75.366Z" fill="url(#paint1_linear)"/>
<defs>
<linearGradient id="paint0_linear" x1="54" y1="0" x2="54" y2="44" gradientUnits="userSpaceOnUse">
<stop stop-color="#6FCF97"/>
<stop offset="1" stop-color="#66D2EA"/>
</linearGradient>
<linearGradient id="paint1_linear" x1="51" y1="13" x2="51" y2="31" gradientUnits="userSpaceOnUse">
<stop stop-color="#6FCF97"/>
<stop offset="1" stop-color="#66D2EA"/>
</linearGradient>
</defs>
</svg>
