<svg width="108" height="44" viewBox="0 0 108 44" fill="none" xmlns="http://www.w3.org/2000/svg">
<path d="M2 4C2 2.89543 2.89543 2 4 2H86C97.0457 2 106 10.9543 106 22C106 33.0457 97.0457 42 86 42H4C2.89543 42 2 41.1046 2 40V4Z" fill="white" stroke="url(#paint0_linear)" stroke-width="4"/>
<path d="M41.5946 21.022C39.5646 20.392 38.6966 18.88 38.6966 17.326V16.01H36.8206V17.172C36.8206 18.922 35.9526 20.644 33.7966 21.358L34.7626 22.814C36.2326 22.296 37.2266 21.302 37.7866 20.042C38.3326 21.134 39.2706 22.002 40.6286 22.45L41.5946 21.022ZM39.9286 26.776C38.2766 26.776 37.3946 26.44 37.3946 25.712C37.3946 24.998 38.2766 24.662 39.9286 24.662C41.5666 24.662 42.4486 24.998 42.4486 25.712C42.4486 26.44 41.5666 26.776 39.9286 26.776ZM39.9286 23.234C37.2406 23.234 35.5606 24.158 35.5606 25.712C35.5606 27.28 37.2406 28.204 39.9286 28.204C42.6026 28.204 44.2826 27.28 44.2826 25.712C44.2826 24.158 42.6026 23.234 39.9286 23.234ZM44.1426 18.306V15.324H42.2946V22.94H44.1426V19.832H45.8506V18.306H44.1426ZM51.8695 16.304H50.0215V18.18C50.0215 20.686 48.9575 23.178 46.7035 24.144L47.8095 25.67C49.3495 24.942 50.3995 23.556 50.9735 21.834C51.5475 23.416 52.5415 24.69 54.0255 25.362L55.0755 23.864C52.8915 22.926 51.8695 20.574 51.8695 18.18V16.304ZM55.7055 15.296V28.232H57.5535V15.296H55.7055ZM66.8627 17.718H72.4207V21.134H66.8627V17.718ZM70.5727 25.208V22.59H74.2267V16.262H65.0567V22.59H68.7247V25.208H63.8247V26.706H75.5007V25.208H70.5727ZM84.7396 20.728C82.7796 20.154 81.8276 18.824 81.7296 17.466H84.2636V16.01H77.2496V17.466H79.8256C79.7276 18.922 78.7896 20.322 76.7456 20.924L77.6696 22.38C79.1816 21.918 80.2176 20.952 80.8056 19.748C81.3936 20.854 82.3876 21.736 83.8436 22.156L84.7396 20.728ZM85.5796 26.58H80.6796V25.446H85.5796V26.58ZM85.5796 24.032H80.6796V22.856H78.8456V28.05H87.4136V22.856H85.5796V24.032ZM85.5516 15.324V22.31H87.4136V15.324H85.5516Z" fill="url(#paint1_linear)"/>
<path d="M22 14.0002C17.584 14.0002 14 17.5842 14 22.0002C14 26.4162 17.584 30.0002 22 30.0002C26.416 30.0002 30 26.4162 30 22.0002C30 17.5842 26.416 14.0002 22 14.0002ZM20.4 26.0002L16.4 22.0002L17.528 20.8722L20.4 23.7362L26.472 17.6642L27.6 18.8002L20.4 26.0002Z" fill="url(#paint2_linear)"/>
<defs>
<linearGradient id="paint0_linear" x1="54" y1="0" x2="54" y2="44" gradientUnits="userSpaceOnUse">
<stop stop-color="#BC9CFF"/>
<stop offset="1" stop-color="#8BA4F9"/>
</linearGradient>
<linearGradient id="paint1_linear" x1="51" y1="13" x2="51" y2="31" gradientUnits="userSpaceOnUse">
<stop stop-color="#BC9CFF"/>
<stop offset="1" stop-color="#8BA4F9"/>
</linearGradient>
<linearGradient id="paint2_linear" x1="22" y1="14.0002" x2="22" y2="30.0002" gradientUnits="userSpaceOnUse">
<stop stop-color="#BC9CFF"/>
<stop offset="1" stop-color="#8BA4F9"/>
</linearGradient>
</defs>
</svg>
