<svg width="108" height="48" viewBox="0 0 108 48" fill="none" xmlns="http://www.w3.org/2000/svg">
<rect x="0.5" y="0.5" width="107" height="47" rx="3.5" fill="url(#paint0_linear)" stroke="url(#paint1_linear)"/>
<path d="M30.9278 18.984H32.2578V24.668C31.8098 24.682 31.3618 24.696 30.9278 24.71V18.984ZM34.0358 18.984H35.1418V17.5H28.0298V18.984H29.1358V24.752C28.6318 24.752 28.1418 24.752 27.6938 24.752L27.8898 26.264C30.0878 26.264 33.0138 26.208 35.6318 25.746L35.5198 24.402C35.0438 24.472 34.5398 24.5 34.0358 24.542V18.984ZM39.8318 21.182H37.9558V16.324H36.1078V29.218H37.9558V22.708H39.8318V21.182ZM51.4507 16.31H49.5887V22.764H51.4507V16.31ZM42.7147 19.628C42.7147 18.718 43.4287 18.172 44.3807 18.172C45.3327 18.172 46.0187 18.718 46.0187 19.628C46.0187 20.552 45.3327 21.084 44.3807 21.084C43.4287 21.084 42.7147 20.552 42.7147 19.628ZM47.8107 19.628C47.8107 17.92 46.3407 16.688 44.3807 16.688C42.4067 16.688 40.9227 17.92 40.9227 19.628C40.9227 21.35 42.4067 22.582 44.3807 22.582C46.3407 22.582 47.8107 21.35 47.8107 19.628ZM44.7027 27.622V26.81H51.4507V23.296H42.8547V24.71H49.6167V25.494H42.8687V29.05H51.7727V27.622H44.7027ZM66.5164 25.83H68.3644V16.31H66.5164V19.054H64.1504V20.552H66.5164V25.83ZM65.2844 22.526C63.2684 21.812 62.4004 20.174 62.4004 18.494V17.094H60.5244V18.48C60.5244 20.314 59.6284 22.106 57.5004 22.82L58.4664 24.262C59.9644 23.716 60.9584 22.666 61.5044 21.336C62.0364 22.526 62.9604 23.464 64.3044 23.954L65.2844 22.526ZM61.7004 27.51V24.878H59.8524V28.98H68.6444V27.51H61.7004ZM76.2593 21.924C75.0833 22.106 74.0613 22.176 72.6753 22.19V21.098H75.8393V19.698H72.6753V18.634H75.9653V17.178H70.8973V23.674H71.7933C73.7113 23.674 74.9573 23.632 76.4273 23.394L76.2593 21.924ZM72.5773 26.208H79.6053V29.218H81.4533V24.738H72.5773V26.208ZM79.7033 16.31V19.474H78.6673V16.534H76.9453V24.094H78.6673V20.944H79.7033V24.178H81.4533V16.31H79.7033Z" fill="white"/>
<defs>
<linearGradient id="paint0_linear" x1="54" y1="0" x2="54" y2="48" gradientUnits="userSpaceOnUse">
<stop stop-color="#BC9CFF"/>
<stop offset="1" stop-color="#8BA4F9"/>
</linearGradient>
<linearGradient id="paint1_linear" x1="54" y1="0" x2="54" y2="48" gradientUnits="userSpaceOnUse">
<stop stop-color="#BC9CFF"/>
<stop offset="1" stop-color="#8BA4F9"/>
</linearGradient>
</defs>
</svg>
